<svg xmlns="http://www.w3.org/2000/svg" fill="currentColor" viewBox="-1.0667 -1.0667 161.5821 37.6896" style="margin-top: .35em;">
  <path fill-rule="evenodd" d="M153.2175 21.2782c3.4962 0 6.1962-2.8462 6.2312-6.225-.245-1.475-.7625-4.2037-4.585-4.2037-4.19 0-5.5762 5.8487-8.985 9.6237-.2737 2.1438-2.305 4.0625-4.8387 4.385.62.6488 2.0025 1.0013 3.6525 1.0013 3.0175 0 6.67-.9088 8.5837-2.7988-2.5537.035-4.1937-1.6062-4.355-3.8762 1.245 1.5087 2.6513 2.0937 4.2963 2.0937"/>
  <path fill-rule="evenodd" d="M126.3725 11.972c0-1.86-.1125-3.1-1.3288-3.1-.5562 0-.825.1125-1.3087.2725.43 6.28-.9913 11.8125-2.7238 11.8125-2.2712 0-1.1387-13.4625-5.9475-13.4625-4.4387 0-5.0787 10.7475-5.5812 10.7475-.3425 0-.395-2.8225-.3763-4.9763.1863-1.03.2888-1.9575.2888-2.6612 0-1-.41-2.7288-2.6813-1.865.079 7.6862-1.46 12.3287-3.1937 12.3287-2.5388 0-2.5675-6.9675-2.5675-8.8862 0-1.875.1362-4.38-2.6513-3.4913-.415 6.7038-2.1737 11.7625-3.2812 11.7625-1.6513 0-1.3188-11.5812-4.8888-11.5812-3.2125 0-4.2037 10.9712-4.8725 10.9712-1.1962 0 .3763-12.3487-4.2625-12.3487-2.4312 0-3.3987 4.1212-4.3512 8.735-.185.8937-.375.9237-.41-.087a65.3985 65.3985 0 0 1-.019-2.5825c1.1663-4.6388-.2587-6.3525-2.4075-5.1175.6938 8.56-3.2375 12.7437-6.25 12.7437-1.0887 0-1.9487-.4637-2.5875-1.1962 3.6125-2.2163 5.2188-4.76 5.2188-7.2463 0-2.69-1.5475-4.2425-4.1163-4.2425-3.5837 0-5.59 3.6913-5.59 6.8313 0 1.6887.3175 3.125.835 4.3062-1.2312.5863-2.3925 1.0938-3.4725 1.5863-.098-3.2275-.4587-6.615-.7362-9.745-1.91-.5275-2.4663.39-2.6125 2.0887-.3425 3.8775-1.7775 6.285-3.0475 6.285-.9525 0-1.5375-1.1625-1.6063-2.3975-.3562-6.2162 4.6875-7.945 7.3288-7.0412.5475-1.3725-.054-2.3588-2.4363-2.3588-2.8862 0-5.0437 1.7538-6.6262 4.0038-1.0538 1.5-2.275 2.5637-3.8963 3.8487.044-.3662.064-.7375.064-1.1037 0-4.38-2.3738-6.3038-4.6388-6.3038-1.875 0-3.0562 1.1225-3.74 2.8513-.1662-1.7338-.5125-2.48-1.5187-2.48-.43 0-1.03.1212-1.67.4337.2925.9675.405 3.1113.405 4.5175 0 5.2675-1.5088 7.6313-2.9588 7.6313-1.66 0-1.9237-6.25-2.065-8.6813-.2587-.098-.5325-.1512-.8112-.1512-1.5038 0-1.6988 2.0162-2.07 3.8712-.41 2.0563-1.5913 4.6388-3.345 4.6388-1.0588 0-1.7238-1.02-1.8063-2.8563-.1712-3.725 2.93-8.14 7.7788-6.7675.6337-1.4837-.3625-2.6125-2.3738-2.6125-3.545 0-6.475 2.6513-7.7537 5.7913-1.2988 2.8812-3.57 7.11-8.1888 7.11-3.2612 0-5.7612-2.8475-5.7612-8.8188 0-5.1462 3.2462-10.035 6.7087-10.035 2.4213 0 2.9838 2.3838 2.7688 4.62 1.255 1.005 3.31.067 3.31-2.4462 0-1.7338-1.4063-4.6738-5.9513-4.6738C4.9712.4437 0 6.055 0 13.4225 0 20.5612 3.6225 24.78 8.75 24.78c3.2375 0 6.2887-1.845 8.3937-5.2538.5325 2.9838 2.5638 4.2388 4.0863 4.2388 2.4662 0 4.0775-1.5975 4.9562-3.755.5475 2.1625 1.7038 3.765 3.6288 3.765 1.3525 0 2.4112-.6888 3.2075-1.7875-.3175 7.5187-.7125 12.3137 3.73 11.3725-.6875-2.1388-.9075-6.0313-.9075-9.5275 0-9.565 1.5775-12.7138 3.555-12.7138 1.435 0 1.8987 1.825 1.8987 3.7738 0 1.045-.1025 2.2462-.3662 3.325-2.4313 1.5337-4.37 2.745-4.37 4.2825 0 1.2162.9037 1.3275 1.685 1.3275 1.865 0 4.1112-1.83 5.3512-5.2825 1.0838-.6588 2.1725-1.4113 3.2125-2.4363-.034.3513-.054.7025-.054 1.0638 0 3.4275 1.4987 5.5037 3.8962 5.5037 1.88 0 3.2863-1.3337 4.2825-3.33.064 1.1513.1025 2.2113.1175 3.1825-3.8087 1.7638-8.0225 3.55-8.0225 8.5213 0 2.5725 1.855 4.5062 4.2725 4.5062 5.3075 0 6.5188-5.6 6.5675-12.1087 1.7288-.7475 3.0125-1.3238 4.4975-2.0613 1.2688 1.5925 2.9975 2.3888 4.58 2.3888 2.9925 0 5.2438-1.5875 7.05-4.805.3175 2.4462.9525 4.805 2.2563 4.805 2.3725 0 2.8562-12.4125 4.6187-12.4125 1.3525 0 .245 13.4275 3.8138 13.4275 3.0562 0 3.6275-11.8163 5.1175-11.8163 1.055 0 1.1325 10.8013 4.4625 10.8013 1.6362 0 3.4137-1.9688 4.3012-6.09.42 2.745 1.8025 6.09 4.5075 6.09 1.5775 0 2.935-1.5975 3.9838-3.7163.2887 2.1825.9037 3.7163 2.1 3.7163 3.11 0 3.0075-12.3838 5.4687-12.3838 1.9188 0 1.3288 12.3838 5.8988 12.3838 2.1725 0 3.2025-1.8513 3.8187-4.18.8388 3.4225 2.2013 4.18 3.315 4.18.7075 0 1.245-.25 1.9488-1.085-3.5363-1.5325-3.2375-7.1138-3.2375-10.7175m-74.8438 21.27c-1.0987 0-1.68-1.045-1.68-2.2225 0-3.1788 2.3338-4.8625 5.205-6.3125-.1275 6.9425-1.7437 8.535-3.525 8.535m14.2775-22.51c1.0688 0 1.6788.9812 1.5713 2.3925-.1213 1.655-1.3275 3.555-3.4275 5.0437-1.0938-3.115-.2775-7.4362 1.8562-7.4362M99.6722 6.035c1.0162-.034 1.7287-.9075 1.7337-1.9475.01-1.04-.6987-1.8613-1.7187-1.8225-1.02.035-1.85.9087-1.855 1.9487-.01 1.04.82 1.855 1.84 1.8213m25.3325.5275c.9275-.034 1.685-.8638 1.685-1.855 0-.9913-.7425-1.7675-1.67-1.7388-.9288.034-1.685.8688-1.69 1.86-.01.9913.7475 1.7675 1.675 1.7338m34.4387 8.2425c-.079-3.9263-1.9437-7.2363-4.825-9.8788-2.1875-1.9962-4.785-3.515-7.5087-4.6575-.215-.092-.44-.1812-.66-.2687-3.3538 4.0187-14.965 7.0162-14.965 15.44 0 3.29 2.08 6.3712 5.1312 7.6075 1.7725.6687 3.54.7025 5.3125.1062 1.5775-.5175 2.8713-1.4937 3.95-2.68 3.4088-3.775 4.795-9.6187 8.98-9.6187 3.8275 0 4.345 2.7237 4.59 4.1987 0-.01 0-.1075-.01-.2487"/>
</svg>