<svg xmlns="http://www.w3.org/2000/svg" fill="currentColor" viewBox="0 0 1000 432.1734">
  <clipPath id="a">
    <path d="M469.62 712.58H580.5v47.92H469.62z"/>
  </clipPath>
  <clipPath id="b">
    <path d="M469.62 712.58H580.5v47.92H469.62z"/>
  </clipPath>
  <g clip-path="url(#a)" transform="matrix(9.01879 0 0 -9.01879 -4235.406 6858.7854)">
    <path d="m474.5084 759.7281.038-5.793c.003-.349-.138-.667-.4-.903l-1.319-1.249.355-8.885.387-9.931c.036-.607-.569-1.131-1.321-1.137-.753-.004-1.363.507-1.337 1.117l.217 9.937.196 8.969-1.315 1.237c-.231.228-.38.547-.381.891l-.008 5.707c-.002.144.053.26.111.379.174.29.575.177.58-.142l.03-4.577.723.002-.031 4.813c0 .174.143.319.315.321.176 0 .32-.145.323-.317l.03-4.81.722.005-.032 4.809c-.003.176.144.323.318.323.172 0 .321-.141.32-.317l.027-4.808.727.006-.03 4.607c-.002.289.372.435.605.205.092-.114.147-.288.15-.459m69.59-2.829c.737-2.791.646-5.432-2.357-7.01l.358-9.429.454-7.424c.037-.645-.656-1.198-1.515-1.204-.858 0-1.555.549-1.523 1.195l.342 7.394.264 9.493c-2.975 1.558-3.016 4.17-2.366 6.966.456 1.998 1.479 2.923 2.301 3.388.529.306 1.189.31 1.718.005.828-.49 1.79-1.377 2.324-3.374m19.078-8.048c0 5.03-2.319 6.959-6.86 6.959h-5.686v-23.591h4.051v9.673c.72 0 1.568.033 2.09.097l2.876-9.77h4.118l-3.431 10.684c1.372.622 2.842 2.157 2.842 5.948m-38.15 6.959h-5.816v-23.591h4.052v9.673h1.764c4.999 0 7.319 1.925 7.319 6.959 0 5.031-2.32 6.959-7.319 6.959m-11.984-17.931c0-3.886-2.614-6.044-6.404-6.044-3.757 0-5.915 3.006-6.078 6.536l3.856.553c.164-2.383 1.111-3.559 2.417-3.559 1.406 0 2.353.751 2.353 2.155 0 4.672-8.233 5.915-8.233 12.678 0 3.757 2.287 5.881 6.273 5.881 3.298 0 5.259-2.386 5.619-5.717l-3.855-.426c-.165 2.026-1.242 2.614-2.157 2.614-1.306 0-2.025-.849-2.025-2.319 0-4.02 8.234-5.948 8.234-12.352m67.458-2.131v-3.529h-11.305v23.591h10.848v-3.529h-6.797v-6.077h5.228v-3.529h-5.228v-6.927zm-89.794 20.004h3.659v-23.591h-3.528l-5.162 14.736h-.066v-14.736h-3.659v23.591h3.758l4.933-13.494h.065zm68.418-6.901c0-2.811-.815-3.627-3.005-3.627h-1.438v7.253h1.438c2.19 0 3.005-.818 3.005-3.626m-30.83 0c0-2.811-.817-3.627-3.464-3.627h-1.568v7.253h1.568c2.647 0 3.464-.818 3.464-3.626"/>
  </g>
  <g clip-path="url(#b)" transform="matrix(9.01879 0 0 -9.01879 -4235.406 6858.7854)">
    <path d="M505.405 714.6085c-.908 0-1.708.526-2.417 1.104.369.643.647 1.301.847 1.812.277.676.601 1.516.877 2.291 2.51-.593 2.725-2.241 2.725-2.835 0-1.071-.615-2.372-2.032-2.372m-6.327.115c-.478 0-.909.28-.909.742 0 .428.355.823.939.823.462 0 .924-.263 1.432-.675-.431-.528-.924-.89-1.462-.89m11.301 8.717c0 2.291-1.741 4.12-4.558 4.12-3.618 0-5.82-2.768-5.82-5.653 0-1.498.647-2.602.647-2.602l1.478 1.169s-.354.709-.354 1.516c0 1.598 1.369 3.757 3.957 3.757 1.816 0 2.71-1.071 2.71-2.323 0-1.78-1.786-2.603-3.172-2.126l.292.791c.509 1.285 1.294 1.583 1.294 1.583l-.401 1.284c-1.401 0-2.417-1.17-2.848-2.306l-1.586-4.202c-.154-.397-.37-.94-.646-1.501-.909.643-1.54.873-2.279.873-1.847 0-2.556-1.384-2.556-2.471 0-1.17.816-2.455 2.602-2.455 1.247 0 2.186.626 2.895 1.45 1.339-1.088 2.447-1.764 3.787-1.764 2.463 0 3.634 2.292 3.634 4.252 0 2.258-1.525 3.297-1.525 3.297s2.449.543 2.449 3.311M538.9983 716.4542s-.755-1.286-1.617-1.286c-.323 0-.508.182-.508.626 0 1.138 1.217 4.549 2.51 4.549.708 0 .708-1.006.708-1.006zm-17.32 0s-.754-1.286-1.632-1.286c-.308 0-.492.182-.492.626 0 1.138 1.2 4.549 2.509 4.549.708 0 .708-1.006.708-1.006zm29.76-.67c.5.659.659 1.695.693 1.917.01.067-.005.118-.033.157-.085.121-.295.125-.295.125-.003-.012-.007-.024-.01-.036-.148-.629-.443-1.122-.808-1.507-.296-.312-.636-.555-.981-.742-.012-.006-.023-.013-.035-.019 0-.001-.001-.001-.002-.002-.804-.415-1.645-.559-2.04-.608.078.281.108.577.108 1.039-.015 1.005-.339 3.641.108 5.949l-1.848.576c-.585-1.384-1.586-3.428-2.217-4.598-1.077-1.994-2.201-3.295-2.879-3.295-.293 0-.569.247.123 2.092l3.204 8.488h-2.172l-1.663-4.384s-.323 1.335-1.724 1.335c-1.843 0-3.107-2.326-3.738-4.396-1.063-1.902-2.116-3.135-2.775-3.135-.261 0-.6.197.124 2.092l.8 2.143c.324.857.478 1.45.478 1.911 0 .873-.509 1.385-1.385 1.385-1.064 0-2.079-.775-2.387-1.088l.323.874h-2.171l-1.579-4.178c-1.05-1.904-2.118-3.139-2.777-3.139-.309 0-.555.296.123 2.092l1.955 5.225h-2.171l-.432-1.121s-.292 1.335-1.723 1.335c-1.916 0-3.154-2.357-3.757-4.43-1.124-2.041-1.893-3.101-2.355-3.101-.2 0-.631.197.108 2.109l.508 1.384c.139.38.185.643.185.841 0 1.169-1.662 2.026-2.294 2.636l.523 1.352-.938.61c-.632-.215-1.417-1.055-1.417-1.88 0-.395.2-.708.478-1.021-1.509-3.56-2.911-5.883-3.619-6.608.077-.28.477-.643.755-.659.801.758 2.309 3.477 3.648 6.641.494-.461.77-.709.77-1.039 0-.066-.015-.23-.138-.559l-.524-1.384c-1.093-2.885 0-3.874 1.201-3.874 1.027 0 1.892.786 2.686 1.92.047-1.071.607-1.92 1.655-1.92 1.324 0 2.341 1.352 2.341 1.352s.122-1.352 1.662-1.352c.794 0 1.521.381 2.189.996l-.296-.781h2.171l2.155 5.701c.662.808 1.37 1.17 1.771 1.17.231 0 .4-.132.4-.346 0-.247-.231-.873-.538-1.664l-.355-.956c-1.093-2.916-.416-4.12 1.078-4.12 1.156 0 2.171.804 3.081 2.004.014-1.086.565-2.004 1.661-2.004 1.324 0 2.34 1.352 2.34 1.352s.123-1.352 1.663-1.352c1.786 0 3.233 1.911 4.434 4.136.323.628.754 1.484 1.154 2.324-.03-.972.031-2.076.031-2.834 0-1.581-.308-2.011-.832-2.011-.246 0-.43.083-.615.297l-1.186-.791c.031-.1.724-1.121 2.448-1.121 1.253 0 2.363.25 3.312.698 1.404.631 2.066 1.5 2.262 1.797"/>
  </g>
</svg>