<svg xmlns="http://www.w3.org/2000/svg" fill="currentColor" viewBox="0 0 331 99">
  <path fill-rule="evenodd" d="m151.2926 44.286-7.1834-16.592h6.6757l3.5577 9.3752 3.3548-9.3753h6.5407L153.351 52.935h-6.1704l4.112-8.6489ZM56.086 36.8358a12.714 12.714 0 0 1 1.8863.3334l3.2845-18.8513a31.232 31.232 0 0 0-1.8839-.335l-3.2869 18.853Zm-9.9254 3.3405L31.6983 27.8908a32.175 32.175 0 0 0-1.9075 2.299L44.219 42.453a12.7424 12.7424 0 0 1 1.9416-2.2768ZM71.3804 22.422c-.5069-.3183-1.02-.6263-1.5451-.916l-9.451 16.5531c.5409.2652 1.062.566 1.557.9026l9.4391-16.5397Zm7.1407 6.15L64.1023 40.8153c.3545.3786.6862.7787.994 1.1987L79.509 29.777a30.607 30.607 0 0 0-.9878-1.205ZM42.385 46.7095c.2614-1.1352.668-2.214 1.204-3.2118l-17.712-6.5302a31.783 31.783 0 0 0-1.1669 3.231l17.675 6.511Zm25.1804 2.8849c0 7.0826-5.71 12.823-12.7536 12.823-6.3085 0-11.5433-4.606-12.5681-10.655L24.563 58.283a32.0146 32.0146 0 0 0 1.4402 4.0414l17.5723-6.4785L29.2318 68.048a31.8571 31.8571 0 0 0 2.9876 3.6208L45.6324 60.27l-8.7499 15.41c1.3896.9773 2.859 1.8473 4.3994 2.5911l8.2224-14.4773-2.8692 16.4739c1.756.4779 3.572.8017 5.4353.9653l2.6765-15.3958 2.686 15.4045c1.9503-.1635 3.85-.5049 5.6825-1.0114l-2.491-14.2915 7.173 12.5808a31.489 31.489 0 0 0 5.5435-3.2738l-6.5833-11.5345 10.066 8.5473a31.8685 31.8685 0 0 0 4.2817-5.264L72.11 59.3611l11.0119 4.0581c1.02-2.1243 1.808-4.3836 2.3426-6.7397l-9.6665-3.5588 10.272-.0016c.1327-1.1876.207-2.3926.207-3.6151 0-1.4162-.1004-2.807-.2772-4.1733H66.8405a12.8704 12.8704 0 0 1 .7248 4.2638Zm-25.5073 0c0-.7121.0608-1.4091.1722-2.0894h-18.819c-.0427.6612-.068 1.3257-.068 1.9989 0 .6263.023 1.2487.0585 1.867h18.781c-.0797-.581-.1247-1.1724-.1247-1.7765ZM47.42 39.1499a12.6319 12.6319 0 0 1 2.2107-1.2718l-9.4525-16.5778a31.5288 31.5288 0 0 0-2.1989 1.2908L47.42 39.15Zm.8448-20.809c.6861-.1477 1.3825-.27 2.0852-.3708l3.2877 18.8586a12.56 12.56 0 0 0-2.0915.3691l-3.2814-18.857ZM218.185 80.69h2.8787V55.491h-2.8787V80.69Zm53.2293-24.3829c.3608.3858.544.8748.544 1.4654 0 .589-.1832 1.0773-.544 1.4639-.3608.3842-.8354.5787-1.4228.5787s-1.0604-.1945-1.422-.5787c-.3608-.3866-.5408-.8748-.5408-1.4639 0-.5906.18-1.0796.5408-1.4654.3616-.385.8346-.5771 1.422-.5771.5874 0 1.062.192 1.4228.5771Zm-77.711-11.0336v-9.5349c0-2.087-.7784-3.1317-2.337-3.1317-.8582 0-1.5064.289-1.947.8669-.4414.5787-.66 1.4138-.66 2.503v9.2967h-6.0978V19.3943h6.0977v10.181c.4959-.77 1.1725-1.3662 2.0315-1.7877.8575-.42 1.8278-.6295 2.9127-.6295 2.0086 0 3.5285.6247 4.555 1.8727 1.028 1.2495 1.542 3.0991 1.542 5.5505v10.6923h-6.097Zm16.8791 29.6778c-.2708.7843-.6608 1.4488-1.1677 1.9925-.5085.5454-1.1133.9717-1.8128 1.2781-.6996.304-1.49.4589-2.371.4589-.878 0-1.67-.1548-2.3703-.4589-.7003-.3064-1.3043-.7327-1.8128-1.278-.5069-.5438-.8977-1.2083-1.1677-1.9926-.2709-.7835-.4067-1.6528-.4067-2.6054 0-.9534.1358-1.8219.4067-2.6046.27-.782.6608-1.4456 1.1677-1.9933.5085-.5422 1.1125-.9685 1.8128-1.275.7004-.3072 1.4923-.4596 2.3703-.4596.881 0 1.6714.1524 2.371.4597.6995.3064 1.3043.7327 1.8128 1.2749.5069.5477.897 1.2114 1.1677 1.9933.2709.7827.4074 1.6512.4074 2.6046 0 .9526-.1365 1.8219-.4074 2.6054Zm.8638-8.972c-.777-.7947-1.6983-1.4186-2.7603-1.875-1.062-.4542-2.2139-.6796-3.455-.6796-1.2404 0-2.3924.2254-3.4543.6795-1.062.4565-1.981 1.0804-2.7603 1.875-.7793.7947-1.3888 1.7354-1.8294 2.8246-.4398 1.0907-.6609 2.272-.6609 3.5421 0 1.2725.2211 2.4514.6609 3.5421.4406 1.0892 1.0501 2.033 1.8294 2.8269.7793.7946 1.6983 1.4194 2.7603 1.8727 1.062.4525 2.2139.681 3.4543.681 1.2411 0 2.393-.2285 3.455-.681 1.062-.4533 1.9834-1.078 2.7603-1.8727.7785-.7938 1.3896-1.7377 1.8286-2.8269.4406-1.0907.6609-2.2696.6609-3.5421 0-1.2701-.2203-2.4514-.6609-3.5421-.439-1.0892-1.05-2.0299-1.8286-2.8245Zm57.1233 14.7099h2.8787V63.9019h-2.8787v16.7874Zm-8.9393-51.6585c1.0272 1.2495 1.5412 3.0991 1.5412 5.5505v10.6923h-6.0969v-9.5349c0-2.087-.7785-3.1317-2.3379-3.1317-.8582 0-1.5056.289-1.947.8669-.4398.5787-.66 1.4138-.66 2.503v9.2967h-6.097V27.7019h5.962l.0678 2.1807c.4509-.8622 1.111-1.533 1.9802-2.01.8693-.4764 1.88-.7145 3.0319-.7145 2.0094 0 3.5277.6247 4.5557 1.8727Zm-51.988 5.8315c.465-2.372 1.7425-3.5572 3.8261-3.5572 1.0138 0 1.8373.3096 2.469.9296.63.6224 1.0137 1.4972 1.1519 2.6276h-7.447Zm12.4796 1.0812c0-1.3622-.1982-2.5831-.593-3.6612-.3963-1.0772-.9648-1.9973-1.7109-2.7586-.7453-.7597-1.6494-1.344-2.7082-1.7536-1.0627-.4072-2.2486-.612-3.5561-.612-1.3565 0-2.5913.227-3.7101.6803-1.1172.4557-2.0829 1.0892-2.8953 1.9076-.8132.816-1.4394 1.7989-1.8791 2.9468-.4406 1.1447-.6609 2.4117-.6609 3.7953 0 1.4313.2416 2.7245.728 3.882.4848 1.1573 1.1859 2.141 2.1002 2.945.9135.8074 2.0197 1.4258 3.3185 1.8569 1.298.431 2.7602.6477 4.3875.6477 1.3533 0 2.6584-.1595 3.9115-.4763 1.2522-.3183 2.3197-.7732 3.1992-1.363l-1.9296-3.916c-.7233.3183-1.508.562-2.3545.732-.8464.169-1.6083.254-2.2857.254-2.7777 0-5.2308-.9971-5.8396-2.996h12.2744c.135-.566.2037-1.271.2037-2.1109Zm14.497 3.5763c-.702.7708-1.6273 1.1574-2.7785 1.1574-1.1511 0-2.0773-.3866-2.7768-1.1574-.7011-.7716-1.0501-1.7822-1.0501-3.0317 0-1.2479.349-2.2577 1.05-3.0309.6996-.7716 1.6258-1.1574 2.777-1.1574 1.1511 0 2.0765.3858 2.7784 1.1574.698.7732 1.0493 1.783 1.0493 3.031 0 1.2494-.3514 2.26-1.0493 3.0316Zm4.097-9.7047c-.8583-.8407-1.8744-1.4932-3.0477-1.96-1.1764-.4644-2.4508-.697-3.8278-.697-1.3785 0-2.6536.2326-3.827.697-1.1748.4668-2.191 1.1193-3.0484 1.96-.8582.839-1.5301 1.8266-2.015 2.9618-.4863 1.1344-.7287 2.3712-.7287 3.7112 0 1.34.2424 2.5768.7288 3.7128.4848 1.1336 1.1567 2.122 2.015 2.9626.8574.8407 1.8735 1.4917 3.0484 1.9577 1.1733.4652 2.4484.6985 3.827.6985 1.377 0 2.6513-.2333 3.8277-.6985 1.1733-.466 2.1894-1.117 3.0477-1.9577.8574-.8406 1.5293-1.829 2.0141-2.9626.4864-1.136.7303-2.3728.7303-3.7128 0-1.34-.244-2.5768-.7303-3.7112-.4848-1.1352-1.1567-2.1227-2.0141-2.9618Zm-48.0996 35.4665c1.0383 1.2352 1.5578 3.0483 1.5578 5.4315v9.977h-2.8787v-9.4682c0-1.8155-.3095-3.1444-.9309-3.9819-.6213-.8415-1.609-1.2606-2.9624-1.2606-1.4922 0-2.6497.4938-3.4732 1.4805-.8243.9875-1.2364 2.3656-1.2364 4.1383V80.69h-2.8787V63.9019h2.7097l.0442 2.9793c.3853-.9256.9554-1.683 1.7165-2.2648 1.0398-.7947 2.3023-1.1916 3.7938-1.1916 1.9873 0 3.5009.6176 4.5383 1.8568Zm48.7194 9.6698c-.2709.7843-.6617 1.4488-1.167 1.9925-.51.5454-1.114.9717-1.8144 1.2781-.6995.304-1.4899.4589-2.3702.4589-.8796 0-1.67-.1548-2.371-.4589-.7004-.3064-1.3036-.7327-1.812-1.278-.5078-.5438-.8978-1.2083-1.1678-1.9926-.2716-.7835-.4066-1.6528-.4066-2.6054 0-.9534.135-1.8219.4066-2.6046.27-.782.66-1.4456 1.1677-1.9933.5085-.5422 1.1117-.9685 1.812-1.275.7012-.3072 1.4915-.4596 2.371-.4596.8804 0 1.6708.1524 2.3703.4597.7003.3064 1.3044.7327 1.8144 1.2749.5053.5477.8961 1.2114 1.167 1.9933.27.7827.4074 1.6512.4074 2.6046 0 .9526-.1374 1.8219-.4074 2.6054Zm.8645-8.972c-.7793-.7947-1.6999-1.4186-2.7618-1.875-1.0612-.4542-2.2131-.6796-3.4543-.6796-1.2404 0-2.3924.2254-3.4551.6795-1.0612.4565-1.981 1.0804-2.7603 1.875-.7785.7947-1.3888 1.7354-1.8286 2.8246-.4398 1.0907-.6608 2.272-.6608 3.5421 0 1.2725.221 2.4514.6608 3.5421.4398 1.0892 1.0501 2.033 1.8286 2.8269.7793.7946 1.6991 1.4194 2.7603 1.8727 1.0627.4525 2.2147.681 3.455.681 1.2413 0 2.3932-.2285 3.4544-.681 1.062-.4533 1.9825-1.078 2.7618-1.8727.7777-.7938 1.3888-1.7377 1.8278-2.8269.4406-1.0907.6601-2.2696.6601-3.5421 0-1.2701-.2195-2.4514-.66-3.5421-.439-1.0892-1.0502-2.0299-1.8279-2.8245ZM135.7645 39.2975c-.6561.7153-1.5018 1.0725-2.5408 1.0725s-1.891-.3572-2.5574-1.0725c-.6656-.7144-.9988-1.6512-.9988-2.8094 0-1.1582.3332-2.0933.9988-2.8086.6664-.716 1.5183-1.0725 2.5574-1.0725 1.039 0 1.8847.3565 2.5408 1.0725.653.7153.9822 1.6504.9822 2.8086 0 1.1582-.3293 2.095-.9822 2.8094Zm6.7388-11.5956h-5.7235l-.067 2.0441c-.5204-.8184-1.2144-1.452-2.083-1.9076-.87-.4533-1.8348-.6803-2.8968-.6803-1.1512 0-2.2242.2381-3.2166.7144-.994.4771-1.8578 1.136-2.5913 1.976-.7343.8398-1.3036 1.8337-1.711 2.9792-.4058 1.1463-.6095 2.3895-.6095 3.7287 0 1.363.1974 2.611.593 3.7461.3947 1.136.9427 2.1109 1.643 2.9285.6995.8169 1.5349 1.4528 2.506 1.906.9704.4557 2.0434.6827 3.2182.6827 1.1283 0 2.1381-.223 3.0303-.6652.8922-.4422 1.5973-1.0725 2.1176-1.8901l.0671 2.0092h5.7235V27.7019Zm165.0788 48.4934c0 1.5663-.6159 2.8031-1.846 3.712-1.2317.9066-2.885 1.3615-4.9607 1.3615-1.0849 0-2.1587-.1532-3.219-.4612-1.0596-.304-1.9076-.697-2.5392-1.1733l1.1867-2.0767c1.4646.862 2.99 1.294 4.5715 1.294 1.2396 0 2.202-.2168 2.877-.6486.6775-.4319 1.0162-1.0423 1.0162-1.837 0-.3636-.0497-.6835-.1516-.9542-.1026-.2723-.3008-.5184-.593-.7311-.2936-.2175-.701-.4271-1.2198-.6303-.5187-.2056-1.197-.4319-2.0307-.6827-1.831-.5438-3.14-1.2146-3.9304-2.0084-.7903-.7955-1.1851-1.8378-1.1851-3.1326 0-1.4527.559-2.6173 1.6762-3.492 1.1172-.8725 2.6253-1.31 4.5218-1.31.859 0 1.7725.1303 2.7429.3907.972.2603 1.7836.5961 2.439 1.0066l-1.118 2.0767c-1.3992-.7058-2.7548-1.055-4.064-1.055-2.281 0-3.4195.6898-3.4195 2.0758 0 .7042.259 1.2662.7777 1.6862.5188.4191 1.4228.8224 2.7114 1.209 1.0824.3167 1.9904.6462 2.7247.9875.7335.339 1.3265.72 1.7789 1.14.4508.4207.7722.8962.9648 1.4305.1934.5342.2882 1.1407.2882 1.8226ZM121.5225 58.1465h-8.8066v22.5436h-3.0477V58.1465h-8.8059v-2.6212h20.6602v2.6212ZM108.161 24.5694h1.9305c2.9348 0 4.4025 1.1812 4.4025 3.542 0 2.4308-1.4899 3.6438-4.4704 3.6438h-1.8626v-7.1858Zm3.3856 12.3275 4.5052 8.3767h7.4518l-6.4017-10.2493c1.242-.7264 2.2013-1.698 2.8795-2.9103.6775-1.217 1.0154-2.5387 1.0154-3.9684 0-1.3622-.2314-2.5879-.694-3.6778-.4635-1.09-1.1236-2.0093-1.981-2.757-.8583-.751-1.9084-1.3226-3.1503-1.7203-1.242-.397-2.6537-.5962-4.2336-.5962h-9.2796v25.8793h6.5027v-8.3433h1.8626l1.523-.0334Zm16.2553 29.0142c.927 0 1.7055.1651 2.3387.4946.6316.327 1.1393.7533 1.5238 1.2749.3837.5231.6593 1.1233.829 1.8068.1343.535.1998 1.082.2282 1.633h-10.163c.1618-1.4282.6087-2.5944 1.35-3.4898.9483-1.1471 2.2455-1.7195 3.8933-1.7195Zm5.6066-.1707c-.6663-.7271-1.4622-1.294-2.3876-1.7036-.9261-.4064-1.9423-.612-3.0484-.612-1.2199 0-2.3371.2207-3.3533.6644-1.0153.443-1.891 1.067-2.6244 1.8727-.7343.805-1.3036 1.7719-1.7102 2.8952-.4066 1.124-.6103 2.3545-.6103 3.693 0 2.7466.8132 4.8868 2.439 6.4197 1.6256 1.5337 3.9066 2.299 6.8414 2.299 1.1962 0 2.3536-.1358 3.4716-.408 1.118-.2731 2.0608-.6486 2.829-1.1241l-1.0848-2.1109c-1.7386.7018-3.4322 1.055-5.08 1.055-2.146 0-3.7828-.5175-4.911-1.5495-.9404-.8597-1.482-2.1077-1.64-3.7303h12.884c.0229-.2262.0395-.4318.0513-.6104.0103-.1842.0166-.512.0166-.9884 0-1.2503-.1808-2.3902-.5416-3.4238-.3617-1.0336-.8757-1.9124-1.5413-2.638Zm150.349.1707c2.889 0 4.5265 1.4527 4.9118 4.3574.0434.1826.0718.397.0829.6478.0007.0198.0007.0468.0023.0667H278.679c.1602-1.3273.5929-2.4371 1.3035-3.3183.9348-1.171 2.1934-1.7536 3.7749-1.7536Zm5.6903-.2215c-.6554-.7152-1.452-1.2717-2.3884-1.6702-.9372-.3961-1.9818-.5946-3.1322-.5946-1.1748 0-2.2589.2207-3.2514.6644-.994.443-1.8523 1.067-2.574 1.8727-.724.805-1.2885 1.7584-1.695 2.861-.4043 1.1003-.6088 2.2974-.6088 3.5906 0 2.8157.7974 4.994 2.3876 6.5397 1.5917 1.544 3.8333 2.3156 6.723 2.3156 1.2412 0 2.4263-.1485 3.5562-.4422 1.129-.2953 2.1215-.7057 2.9797-1.2265l-1.0161-2.1783c-1.8057.8375-3.6004 1.259-5.3848 1.259-3.9233 0-6.0464-1.8083-6.3843-5.4163h12.7852a19.874 19.874 0 0 0 .0537-.6113c.0087-.1826.0142-.512.0142-.9867 0-1.2495-.1792-2.3784-.54-3.3897-.3608-1.009-.8709-1.8711-1.5246-2.5872ZM152.7146 77.8291l1.05 2.1465c-.7231.4065-1.553.7264-2.4886.9534-.9372.2263-1.8807.3398-2.829.3398-1.3998 0-2.6702-.2032-3.8103-.6129-1.1401-.4088-2.1113-1.001-2.9127-1.771-.8014-.7724-1.4172-1.7036-1.846-2.7928-.4287-1.0891-.6427-2.3029-.6427-3.6437 0-1.3384.2195-2.5593.6601-3.6596.4398-1.1019 1.0548-2.049 1.846-2.8436.7903-.7946 1.7441-1.413 2.8613-1.856 1.118-.4437 2.3418-.6644 3.6746-.6644 1.7836 0 3.5.4533 5.1487 1.363l-1.118 2.1109c-.5867-.2946-1.2183-.5168-1.8965-.6653-.6775-.1469-1.3439-.2199-1.9976-.2199-1.9202 0-3.4377.5668-4.5557 1.7012-1.118 1.136-1.677 2.669-1.677 4.598 0 1.998.57 3.5595 1.711 4.6828 1.1392 1.1241 2.7144 1.6854 4.7246 1.6854 1.309 0 2.6758-.285 4.0978-.8518Zm18.053-12.5332c1.0502 1.251 1.5752 3.0547 1.5752 5.4172v9.977h-2.8795v-9.4682c0-1.8155-.3158-3.1444-.9482-3.9819-.6324-.8415-1.6257-1.2606-2.9798-1.2606-1.4906 0-2.649.4938-3.4732 1.4805-.8235.9875-1.2349 2.3656-1.2349 4.1383v9.0919h-2.8795V55.491h2.8795v11.1615c.405-.8677.9783-1.5782 1.7268-2.1204 1.0161-.7383 2.2352-1.1074 3.658-1.1074 1.9865 0 3.5048.624 4.5557 1.871Zm7.2371-19.7151c-.8914.158-1.812.239-2.7603.239-4.4033 0-6.6038-2.3046-6.6038-6.9144v-6.265h-2.9458v-4.9385h2.9458v-4.5281h6.0954v4.528h5.6903l-1.523 4.9386h-4.1673v5.2115c0 1.0654.1705 1.8092.5084 2.2292.3396.4207.9151.631 1.7276.631.9253 0 1.8294-.1714 2.7105-.5112l.6096 4.733c-.6333.2722-1.3952.4873-2.2874.6469Zm80.9094 31.3131c-.5077.555-1.1125.9931-1.8128 1.309-.6996.3192-1.456.478-2.2684.478-1.76 0-3.1558-.5613-4.183-1.6854-1.0273-1.1233-1.5413-2.6506-1.5413-4.582 0-.9312.1414-1.7878.4232-2.5689.2835-.7843.6798-1.4599 1.1852-2.0275.5108-.5684 1.1124-1.009 1.8128-1.328.6995-.3176 1.4677-.4756 2.303-.4756.8575 0 1.6424.1524 2.3537.4597.7114.3064 1.3162.7374 1.8129 1.2947.4958.5557.8795 1.2297 1.1511 2.0235.2708.7947.4059 1.6695.4059 2.622 0 .9098-.1453 1.7441-.4398 2.5047-.2937.7597-.694 1.4193-1.2025 1.9758Zm1.441-9.9929c-.5346-.92-1.2105-1.679-2.034-2.2688-1.1298-.8041-2.427-1.2074-3.894-1.2074-1.1757 0-2.2645.2326-3.2696.6986-1.005.4652-1.8783 1.1002-2.6229 1.906-.7469.8065-1.328 1.7528-1.744 2.8435-.4201 1.0892-.6262 2.2712-.6262 3.5406 0 1.3162.1895 2.5204.574 3.6112.3837 1.0891.9254 2.0195 1.6273 2.7935.6971.7684 1.5333 1.3718 2.5044 1.8028.9704.431 2.0434.6478 3.2182.6478 1.557 0 2.923-.3874 4.097-1.1582.893-.5875 1.6139-1.3599 2.1674-2.3157v1.976c0 2.4275-.5014 4.2105-1.5065 5.3449-1.0027 1.1367-2.5684 1.7043-4.69 1.7043-2.4389 0-4.3464-.4437-5.7234-1.328l-.747 2.3497c.2938.2263.6846.431 1.1702.6105.484.1841 1.0161.3421 1.591.4795.5755.1357 1.185.242 1.8285.3223.6427.0801 1.2815.119 1.9155.119 6.0266 0 9.0412-3.304 9.0412-9.9095V63.9019h-2.8109l-.0663 2.9991Z"/>
</svg>