<!-- TODO: This SVG isnt perfect, this was generated from a png and inside the logo box, the leaves are a static white -->
<svg xmlns="http://www.w3.org/2000/svg" fill="currentColor" viewBox="0 0 2988 595">
  <path d="M0 0h596v595H0V0ZM1479 245v99c16.7046-10.4238 16.7046-10.4238 33.3125-21l4.0625-2.6133c2.286-1.484 4.4808-3.01 6.6875-4.6172 6.8304-4.8608 11.653-5.7184 19.9375-4.7695l3.4844.332c12.9424 1.5119 22.753 4.606 31.5156 14.668 8.984 13.1636 9.1645 29.9163 9.1135 45.2644l.0005 3.5516c-.0007 3.8361-.0085 7.6721-.0163 11.5082-.002 2.6747-.0034 5.3494-.0043 8.0241-.0031 6.2966-.0113 12.5932-.0214 18.8898-.0112 7.1755-.0167 14.351-.0217 21.5264-.0104 14.7452-.028 29.4903-.0503 44.2355l1.8643.2595c2.7955.3905 5.5906.7842 8.3857 1.178l2.9336.4082 2.832.4004 2.6026.365c2.1486.3508 4.2697.8609 6.3818 1.3889l-2 15c-10.4134.0226-20.8269.041-31.2403.0518-4.8349.0052-9.6697.0123-14.5046.0236-4.6619.0109-9.3238.0169-13.9857.0195-1.7826.0018-3.5653.0055-5.348.0108-2.488.0072-4.976.0083-7.4641.0078l-2.256.011c-5.0872-.0104-5.0872-.0104-6.2013-1.1245-.4664-4.6587-.7053-9.3265-1-14l16-4c-.0613-15.0996-.1382-30.199-.2357-45.2984-.0449-7.0116-.0843-14.0232-.1107-21.0349-.0255-6.7693-.0665-13.5383-.1168-20.3075a1918.2834 1918.2834 0 0 1-.0344-7.7397c-.0097-3.6194-.0377-7.2383-.07-10.8575l.0043-3.2172c-.0961-7.6455-.8946-14.4006-5.8117-20.4823-6.3017-4.9514-12.9014-4.846-20.625-4.0625-11.2982 2.6028-21.131 9.6418-30.8027 15.7507C1484 363 1484 363 1479 365v114l18 4c-.875 11.625-.875 11.625-2 15h-80c-.6598-3.959-1.1213-6.997-1.0625-10.875l.0273-2.3672L1414 483c3.2699-.6714 6.541-1.3363 9.8125-2l2.8145-.5781 2.705-.5469 2.4915-.5078C1434 479 1434 479 1437 479V272h-24l-2-15c9.3887-2.608 18.8269-4.9684 28.309-7.2124 1.3232-.3138 2.6458-.6297 3.968-.948C1455.6393 245.8692 1466.1046 245 1479 245ZM890 258c1 1 1 1 1.1203 3.1323l-.0068 2.8465-.0002 3.2152-.0156 3.4974-.0043 3.5605c-.0057 3.7703-.0182 7.5404-.0309 11.3106-.005 2.5488-.0096 5.0977-.0137 7.6465-.011 6.2637-.0283 12.5273-.0488 18.791h-22c-1.7434-4.6492-3.4113-9.139-4.8672-13.8555l-.996-3.1347a690.7125 690.7125 0 0 1-2-6.4297c-1.8364-5.7126-3.2824-9.7412-8.1368-13.5801l-1.8164-1.625c-12.3485-9.724-26.929-12.37-42.2813-10.9102-9.9645 1.3666-19.958 4.7885-26.6835 12.6055C776.337 283.3451 773.7541 291.852 775 302c3.0857 12.7787 10.0851 20.1307 21 27 2.3452 1.2626 4.6843 2.4816 7.0703 3.6602l2.0757 1.0312c10.0563 4.943 20.3339 9.4229 30.5815 13.9514 9.2155 4.0787 18.348 8.2015 27.1436 13.1345l1.8883 1.0587c6.5518 3.775 12.461 8.3068 18.2406 13.164l2.0781 1.7305c10.9496 9.9878 16.5371 23.8382 17.332 38.375.675 20.6642-2.9309 36.0348-16.6601 52.0195-19.261 20.491-53.5235 37.2074-81.8594 38.2266-4.6926-.0596-9.2616-.6113-13.8906-1.3516l-2.4951-.374c-17.4423-2.7218-32.7515-8.3178-47.7754-17.584-1.646-.9917-3.3555-1.876-5.0654-2.753-2.8462-2.4455-3.0623-2.886-3.7364-6.3434l-.4822-2.4388c-.7052-3.968-1.358-7.9388-1.9533-11.9248l-.395-2.6087c-.2721-1.804-.5426-3.6081-.8116-5.4125-.4112-2.7523-.8305-5.5032-1.2504-8.2542a9448.6098 9448.6098 0 0 1-.793-5.287l-.3787-2.472-.3445-2.3374-.3047-2.0307c-.2669-2.7143-.2143-5.452-.2143-8.1795h29c.785 2.145 1.57 4.29 2.379 6.5.7835 2.1033 1.5732 4.2043 2.3634 6.3052a525.6325 525.6325 0 0 1 1.6026 4.3467C764.778 458.068 771.8024 466.6352 786 474c14.9575 6.724 31.5792 8.8 47.2266 3.2031 10.7598-4.6676 17.8006-12.1215 22.5234-22.8281 3.8367-11.2676 2.874-23.6224-2.125-34.3164-11.4325-19.7596-36.6395-27.6984-56.4478-36.5298-6.9746-3.1152-13.8953-6.311-20.7358-9.7124l-1.9342-.957c-18.2608-9.1801-34.3084-21.4465-41.0697-41.4219-3.9218-16.0667-2.829-33.8625 5.75-48.1875 17.4346-25.208 47.498-37.893 76.7827-43.919C841.3597 235.19 868.4796 245.2863 890 258ZM1911 264c1 1 1 1 1.1203 3.2083l-.0068 2.954-.0002 3.3366-.0156 3.63-.0043 3.695c-.0057 3.913-.0182 7.8257-.0309 11.7386-.005 2.6452-.0096 5.2904-.0137 7.9355-.011 6.5007-.0283 13.0014-.0488 19.502h-23c-4.4612-11.153-4.4612-11.153-5.8594-15.9102l-.9453-3.0605a432.803 432.803 0 0 1-1.8437-6.1953c-4.071-12.9492-13.0706-20.0654-24.3516-26.834-16.4068-8.2735-37.0064-8.4347-54.418-3.3242-17.652 6.5257-29.3304 18.122-37.446 34.8772-9.3466 20.5398-11.5493 43.2738-11.4485 65.572l.0065 2.6032c.1343 33.3753 6.4751 68.7565 29.9896 94.1116 14.5127 13.5339 32.949 19.9487 52.7187 19.4375 14.952-1.1526 27.9085-8.3659 38.0696-19.3457 5.3421-6.7528 8.3911-15.2784 11.7781-23.1191a2255.089 2255.089 0 0 1 2.582-5.7754c2.0923-4.6645 4.1277-9.3482 6.168-14.0371h23l-.9063 7.6914c-.6983 6.0132-1.2184 12.0023-1.5398 18.0473-1.6272 28.6693-1.6272 28.6693-7.946 36.0587-6.0599 4.2439-12.8253 5.886-19.9883 7.3838-4.7572 1.0761-9.2053 2.7343-13.7751 4.4184-33.8949 12.2921-65.8354 16.7488-99.157 1.1856-13.4747-6.471-24.81-14.5272-35.6875-24.7852l-2.0508-1.8555c-21.8696-20.5548-33.713-52.3383-35.0754-81.8816-.3797-14.3526.2434-28.1847 3.1262-42.2629l.4058-2.0195c6.9183-32.9397 28.8512-60.141 56.5693-78.2725 16.9117-10.5747 35.8048-16.8092 55.0249-21.708l3.0977-.8125c31.4332-6.996 66.342 6.0695 91.9023 23.8125ZM2768.0508 313.8125c10.176 3.3779 16.8822 8.6889 21.9492 18.1875 5.1021 11.0305 5.3044 24.0358 5.227 35.9722l.001 3.6711c-.0012 3.272-.0111 6.5436-.0252 9.8154-.0127 3.438-.0137 6.8759-.016 10.3138-.0062 6.4878-.0226 12.9755-.0428 19.4632-.0224 7.3956-.0333 14.7912-.0434 22.1868-.0208 15.1925-.0559 30.385-.1006 45.5775l1.8643.2595c2.7955.3905 5.5906.7842 8.3857 1.178l2.9336.4082 2.832.4004 2.6026.365c2.1486.3508 4.2697.8609 6.3818 1.3889l-2 15h-81l-2-15 17-4a18556.0786 18556.0786 0 0 0-.2357-44.9073c-.0449-6.951-.0843-13.902-.1107-20.8532-.0255-6.711-.0665-13.4217-.1168-20.1325a1885.4452 1885.4452 0 0 1-.0344-7.6727c-.0097-3.5883-.0377-7.176-.07-10.7641l.0043-3.189c-.1173-9.2452-1.6706-16.8762-8.4367-23.4812-6.8452-3.4344-14.9413-2.9633-22.2422-1.2305-9.3137 3.2865-17.6406 8.6816-25.7578 14.2305l-1.701.8464c-3.0214 1.707-4.9624 2.9894-5.9526 6.4146-.2504 2.9127-.2774 5.7563-.2329 8.6797l-.0326 3.342c-.0274 3.6422-.0055 7.2822.0168 10.9243a3178.0206 3178.0206 0 0 1-.0373 7.579c-.029 5.9677-.027 11.9347-.01 17.9023.0178 6.7958-.0042 13.5912-.0294 20.387-.051 13.975-.051 27.9496-.021 41.9247l18 4-2 15h-80l-2-15a5839.246 5839.246 0 0 1 10.3125-2l2.959-.5781 2.8418-.5469 2.6184-.5078C2642 479 2642 479 2645 479V342l-10 1c-2.541.0614-5.0834.0874-7.625.0625l-3.664-.0273L2621 343c-.366-1.7267-.7172-3.4565-1.0625-5.1875l-.5977-2.918c-.3463-2.9502.015-5.0235.6602-7.8945a6719.634 6719.634 0 0 1 17.8223-4.2175c2.0178-.476 4.035-.954 6.0517-1.4346 2.913-.6937 5.8279-1.379 8.7432-2.0627l2.6938-.6472c10.042-2.3366 19.2589-2.638 29.689-2.638l2 28c11.8202-7.4458 23.6107-14.935 35.3689-22.4785a1977.3536 1977.3536 0 0 1 5.9553-3.804c1.6764-1.076 3.3424-2.1685 4.9922-3.2846 10.02-6.6702 23.6083-3.5836 34.7344-.6204ZM1165 315l.0044 2.1273c.0372 17.1113.0962 34.2223.1795 51.3335.0397 8.275.0722 16.5498.0871 24.8248.013 7.2158.04 14.4313.0836 21.647.0226 3.8177.0383 7.6352.0373 11.453-.0008 3.6003.0173 7.1999.0493 10.8.0124 1.9374.0054 3.875-.0023 5.8125.0865 7.3044.8531 13.5831 4.5611 20.0019 5.01 4.5545 10.7155 5.621 17.25 6.375 10.858-1.0858 20.5562-6.3647 29.6794-12.0819a104.8666 104.8666 0 0 1 4.1623-2.4689c3.1262-1.9666 5.4733-3.488 6.6471-7.0936.2869-2.803.3165-5.5086.2612-8.3258l.0331-3.1947c.0266-3.4747-.003-6.9465-.0331-10.421.0075-2.4129.0186-4.8257.033-7.2385.0284-6.3428.0091-12.6845-.0201-19.0273-.0214-6.4753.0023-12.9504.0223-19.4256.0324-12.6995.016-25.3983-.0352-38.0977l-3.7871.4939c-5.4198.7068-10.7508.5682-16.2129.5061l-2-16c7.0822-2.5172 14.228-4.4157 21.5503-6.1072 1.8946-.4424 3.7836-.9085 5.6724-1.3752 8.6125-1.9946 17.0275-2.9744 25.834-3.619l3.4915-.2668c2.817-.2148 5.6342-.4253 8.4518-.6318l.0072 2.3119c.0593 18.597.1349 37.194.2285 55.7909.045 8.9935.0843 17.9869.1107 26.9805.023 7.8423.0565 15.6845.1023 23.5268.0239 4.1492.0426 8.2982.049 12.4475.006 3.9128.0261 7.8253.0566 11.738.0087 1.429.0125 2.8579.0107 4.2868-.0073 8.5363.8067 15.7787 3.435 23.9176h17c.7654 5.3579 1.0929 9.7052 1 15-5.2023 1.9166-10.4184 2.948-15.8516 3.9453l-2.8377.5295a2883.18 2883.18 0 0 1-5.9152 1.094c-3.0184.5558-6.0351 1.12-9.0518 1.6851-1.9191.356-3.8384.7115-5.7578 1.0664l-2.7306.5113-2.5491.4658-2.2331.4123C1244 501 1244 501 1240 501c-1.5075-4.2682-3.0047-8.54-4.5-12.8125l-1.3008-3.6816c-.406-1.1634-.812-2.3268-1.2305-3.5254l-1.1425-3.2532C1231 475 1231 475 1231 472c-6.5085 3.3316-12.6905 7.0141-18.8125 11l-2.1587 1.3833c-4.193 2.7027-8.276 5.5056-12.31 8.441-12.4083 8.8063-21.5085 12.7453-36.7188 10.1757l-2.2759-.3735c-12.2387-2.1906-22.394-6.1576-29.7241-16.6265-9.5585-15.0908-7.4007-36.4771-7.293-53.4727.0056-2.6212.0099-5.2425.0129-7.8638.0092-6.1478.0337-12.2953.064-18.443.0338-7.011.0501-14.0222.0651-21.0334.0312-14.3958.0838-28.7914.151-43.1871l-1.8302.2153-2.4235.2786-2.3926.2778c-5.4318.5269-10.9047.2812-16.3537.2283l-2-16c4.6107-1.537 9.1127-2.81 13.836-3.875l2.269-.514c2.4219-.5437 4.8455-1.079 7.27-1.611l2.493-.549c13.9053-3.0332 27.8388-5.451 42.132-5.451ZM2913 311c1.4005.1208 2.8016.235 4.2031.3438 14.1556 1.2168 26.0969 4.2762 36.0469 14.9687 12.3484 15.3013 9.8925 38.3259 9.9492 56.7575.012 3.5366.0314 7.073.0531 10.6095.0613 10.0459.1158 20.0917.149 30.1376.021 6.1684.0564 12.3365.1008 18.5047.0141 2.339.0229 4.678.026 7.017.005 3.273.0282 6.5454.0554 9.8182l-.0091 2.8894c.0863 7.029 1.256 13.6143 4.4256 19.9536l18 1 1.0625 7.4375.344 2.3455c.2393 1.7338.4183 3.4756.5935 5.217-2.1661 2.1661-6.854 1.6898-9.8633 1.9727l-2.7344.2647c-1.9208.1846-3.8417.3669-5.7629.547-2.902.2734-5.803.5574-8.7039.8426-9.3344.8975-18.5486 1.7163-27.9355 1.373-1.6748-4.2677-3.3385-8.5396-5-12.8125l-1.4453-3.6816-1.3672-3.5254-1.2695-3.2532C2923 477 2923 477 2923 474c-5.4364 2.9344-10.2086 6.3154-15.0625 10.125-26.1393 20.2639-26.1393 20.2639-40.9375 18.875-13.6534-2.4205-26.0328-8.704-34.4258-19.9023-7.1712-10.6828-9.0979-23.5957-7.0781-36.1914 2.3515-10.3093 6.4453-19.8025 14.5039-26.9063 3.8344-1.9971 7.8095-3.229 11.9414-4.4727l3.5112-1.126c3.696-1.1792 7.4022-2.322 11.1099-3.4638 2.4324-.769 4.864-1.5406 7.295-2.3145a2305.2985 2305.2985 0 0 1 14.2953-4.4868 1234.7367 1234.7367 0 0 0 13.4248-4.2529l3.0857-.9955a1634.602 1634.602 0 0 0 5.698-1.8539l2.533-.8169 2.1969-.7163C2917 395 2917 395 2920 395a3837.9899 3837.9899 0 0 0-.3174-16.1133c-.038-1.8232-.073-3.6464-.1045-5.4697.3038-17.438.3038-17.438-5.5781-33.417-4.3163-3.714-8.367-5.0922-14-5-8.5195.8263-16.746 2.8-25 5l-.3354 2.0762a5659.7104 5659.7104 0 0 1-1.5396 9.4238l-.5273 3.2656-.5274 3.2031-.476 2.92c-.7136 3.7358-1.6718 7.4215-2.5943 11.1113h-38v-32l9.0352-3.8047c1.9335-.8152 3.867-1.6305 5.8005-2.446a8027.1635 8027.1635 0 0 1 12.4829-5.2505c9.5229-4.0036 18.998-8.0519 28.3623-12.4143 9.082-4.1907 16.1653-6.4882 26.3191-5.0845Zm1.9109 101.573-2.63 1.0431a3746.672 3746.672 0 0 0-11.9354 4.7997 1213.5121 1213.5121 0 0 1-6.2998 2.5166c-3.0275 1.2-6.047 2.4189-9.0652 3.6418l-2.8445 1.115c-5.8171 2.3868-9.0742 4.5796-12.1829 10.2053-3.1203 8.5115-3.7369 19.7781-.3281 28.293 2.6792 4.9434 6.0867 7.6684 11.125 10.1875 8.1257 1.5626 14.744-.3701 21.8496-4.4478 2.3533-1.3338 4.6035-2.4875 7.0425-3.6145 4.1382-2.1383 7.7256-4.3877 10.3579-8.3127 2.3155-7.7345 1.3127-16.1748.875-24.125a1131.0998 1131.0998 0 0 1-.1914-6.6563c-.1535-5.4109-.387-10.8138-.6836-16.2187-1.8032 0-3.4324.9152-5.0891 1.573ZM2019 311l2.4875.1511c12.6294.8458 25.77 3.1716 35.5125 11.8489 14.031 16.0713 12.2866 39.7706 12.2744 59.7227-.001 3.5418.0122 7.0833.029 10.625.0458 10.0553.0709 20.1106.0775 30.166.005 6.187.0293 12.3738.0653 18.5608.0097 2.3402.0121 4.6804.0068 7.0206-.131 16.8719-.131 16.8719 4.547 32.9049l18 1 1.0625 7.4375.344 2.3455c.2393 1.7338.4183 3.4756.5935 5.217-2.1661 2.1661-6.854 1.6898-9.8633 1.9727l-2.7344.2647c-1.9208.1846-3.8417.3669-5.7629.547-2.902.2734-5.803.5574-8.7039.8426-9.3344.8975-18.5486 1.7163-27.9355 1.373a5660.0255 5660.0255 0 0 1-4.2725-11.4258 2288.0799 2288.0799 0 0 0-1.455-3.8877 2383.121 2383.121 0 0 1-2.085-5.585l-1.2695-3.396C2029 476 2029 476 2029 474c-4.5924 2.5221-8.6968 5.1703-12.8125 8.4375-5.5092 4.3224-11.1306 8.4701-16.8125 12.5625l-2.3704 1.7087c-8.2 5.8941-13.917 7.238-24.0046 6.2913-12.1784-2.159-25.5265-7.669-33-18-7.7554-13.0315-11.1701-25.9087-7.875-41 1.7062-6.176 4.3024-11.684 7.875-17l1.098-1.647c4.3353-5.7815 9.2194-7.4301 15.984-9.474l3.2922-1.056c3.473-1.1085 6.955-2.185 10.4383-3.2605 2.267-.7173 4.5332-1.4367 6.7988-2.1582a2461.2454 2461.2454 0 0 1 13.5591-4.2632c4.6755-1.4588 9.3403-2.9465 13.999-4.458l3.4829-1.128c2.1937-.712 4.3864-1.4272 6.5779-2.1463l2.9639-.9598 2.6018-.8505C2023 395 2023 395 2026 395a3855.3908 3855.3908 0 0 0-.3174-16.0583c-.038-1.8164-.0729-3.6328-.1045-5.4493.5583-18.3812.5583-18.3812-6.5781-34.4924-4.8216-3.8841-10.0286-4.284-15.9844-3.7148-7.4763 1.0642-14.7078 2.8408-22.0156 4.7148l-.4431 2.7222a6880.5832 6880.5832 0 0 1-1.6382 9.9853 2690.9093 2690.9093 0 0 0-.707 4.3242c-.337 2.0707-.6783 4.1406-1.0203 6.2105l-.6189 3.7768C1976 370 1976 370 1975 372h-38v-32c13.1875-5.5 13.1875-5.5 17.684-7.368 7.7627-3.2356 15.4637-6.5793 23.1207-10.0578a7279.5572 7279.5572 0 0 1 7.3605-3.3022 433.3052 433.3052 0 0 0 4.7314-2.1743c10.0044-4.6675 17.8359-7.1992 29.1034-6.0977Zm-12.5996 107.251a705.945 705.945 0 0 1-6.2793 2.455c-3.0247 1.1673-6.0343 2.3676-9.043 3.5752l-2.8288 1.068c-7.6439 3.1347-10.3728 7.2475-13.5345 14.6664-2.1758 9.084-1.9888 18.9393 2.8633 27.0625 3.3328 4.5047 6.9555 6.7874 12.4219 7.9219 6.9636.3363 12.6013-1.6306 18.5996-5.0728 2.3533-1.3338 4.6035-2.4875 7.0425-3.6145 4.1382-2.1383 7.7256-4.3877 10.3579-8.3127 2.3155-7.7345 1.3127-16.1748.875-24.125a1131.0998 1131.0998 0 0 1-.1914-6.6563c-.1535-5.4109-.387-10.8138-.6836-16.2187-6.0448 0-14.0334 5.0297-19.5996 7.251ZM2369.25 322.8125c20.2282 14.2819 33.2515 34.767 37.75 59.1875 3.8046 22.9505 2.198 45.8543-8 67l-1.2656 2.7227C2386.2518 474.6549 2363.752 489.9144 2340 498l-2.105.7354c-18.9218 6.4561-36.9616 6.3504-55.0825-2.4854-6.1592-3.132-11.5948-6.6973-16.8125-11.25l-2.9375-2.3438C2245.0967 467.6585 2237.176 442.4409 2235 420c-1.6786-25.577 3.9784-51.7973 20.875-71.664 28.0271-30.8093 75.2661-50.0943 113.375-25.5235ZM2295.5 341.5c-16.006 19.186-17.2057 48.3658-15.2773 72.2588 2.3792 23.3147 8.7594 48.1895 27.6289 63.7334 7.7147 5.4143 15.8595 6.7874 25.1484 5.5078 10.0554-2.95 16.2837-10.4532 21.1875-19.375 7.31-15.5385 9.0481-32.0612 9.0625-49l.002-2.1636c-.0165-11.0506-.4789-21.7176-3.252-32.4614l-.5361-2.0889c-4.4905-16.8526-12.099-33.8134-27.585-43.1963-13.2479-6.5885-26.303-3.8406-36.3789 6.7852ZM1057 325c3.4764 2.8595 6.7474 5.8905 10 9l1.9023 1.6758c14.6697 13.4056 23.2203 37.1496 24.2747 56.5871.5657 30.927-3.7057 56.8184-25.638 80.2957-13.9963 13.458-30.3729 21.1523-48.539 27.4414l-3.3516 1.1719c-16.7536 5.0025-34.9546 2.136-50.2734-5.7344C944.8242 484.2008 931.0226 465.1092 924 443c-7.7486-28.4009-5.3536-58.2445 9.1992-84.0469C949.2674 332.6027 976.0271 319.4753 1005 312c17.8352-4.0986 37.4295 2.6724 52 13Zm-75.6758 15.3555C964.3987 359.6135 963.6906 388.728 965 413c1.847 23.2094 8.7894 48.3071 27 64 8.1294 5.8461 16.1094 7.5091 26 6 9.0612-2.6283 14.8711-8.8866 19.6875-16.7578 8.5089-15.9541 10.7098-33.5068 10.625-51.3672l-.017-3.8196c-.3244-25.2062-5.4517-51.8733-23.5611-70.6687-13.5947-11.8662-30.3703-12.7026-43.4102-.0312Z"/>
  <path d="M2475 244v235l21 3 4 1-2 15h-87l-2-15 23-4V272h-23l-2-16a3345.0098 3345.0098 0 0 1 17.7002-4.1626c1.9985-.4668 3.9959-.938 5.9922-1.414C2445.3052 246.943 2459.91 244 2475 244ZM1361 271v44h42v19h-42c.0856 15.3603.1792 30.7205.2875 46.0807.05 7.1327.0965 14.2653.1344 21.398.033 6.22.0729 12.4398.1209 18.6596.0251 3.2906.046 6.5811.0605 9.8718.017 3.6816.046 7.3629.0779 11.0443l.0065 3.274c.097 8.8015.5944 16.6083 6.3123 23.6716 4.6062 4.0479 8.8811 4.3284 14.8086 4.2969 5.6576-.5263 10.8433-2.4702 16.1914-4.2969 1.331-.3427 2.6639-.678 4-1 .151 6.6866.2073 13.6186-2 20-3.5656 3.6565-7.4139 5.3507-12.0786 7.1582-1.9497.8542-3.5532 1.8545-5.2925 3.0762-10.563 7.3422-20.7648 7.068-33.1914 5.2422-9.6617-2.095-18.3815-6.4875-24.4375-14.4766-6.7142-11.2734-7.3051-23.552-7.227-36.3877l-.001-3.8772c-.0005-3.4682.0112-6.9363.0252-10.4045.0126-3.6395.0137-7.279.016-10.9184.0062-6.8739.0226-13.7477.0428-20.6215.0224-7.8333.0333-15.6666.0434-23.4998.0208-16.097.0574-32.194.1006-48.2909h-29c0-7 0-7 1.8281-9.4766l2.4219-2.1484c3.6008-3.2595 3.6008-3.2595 6.5-7.129 2.5162-2.5117 2.983-2.5922 6.3594-2.7343a142.991 142.991 0 0 1 4.6406.1758l2.4023.0684c1.95.0587 3.8991.1484 5.8477.2441l-.2813-3.6914c-.6858-12.6425-.6858-12.6425 1.6758-16.711 2.0996-1.7489 4.2937-3.1414 6.6055-4.5976 1.8601-1.6367 3.6922-3.3057 5.5-5l2.8555-2.5547c2.604-2.3355 2.604-2.3355 4.6328-4.6406 6.572-6.952 8.7144-4.8047 20.0117-4.8047ZM2207.51 312.8865c1.5605.0001 3.121.0058 4.6814.0158l2.4844.0043c2.629.0056 5.2578.0182 7.8867.0309 1.778.005 3.556.0096 5.334.0137 4.3679.011 8.7357.0283 13.1035.0488-1.386 8.252-3.1712 16.3944-5.0867 24.5374-.4822 2.0524-.9587 4.106-1.4348 6.1599-.3063 1.3106-.613 2.6211-.92 3.9316l-.8341 3.5647C2232 354 2232 354 2231 356l-2.3516.0283c-3.55.054-7.0989.1376-10.6484.2217l-3.6992.043c-12.6252.3412-18.8742 4.7025-28.3008 12.707l-2.3555 1.9453c-2.2915 1.9484-4.4615 3.9858-6.6445 6.0547l-2.1498 1.8562c-6.2074 6.272-6.7163 11.9431-6.7784 20.342.0225 2.8959.084 5.7894.147 8.6846.0149 2.026.0263 4.0519.0343 6.0779.0303 5.3042.1088 10.6066.1976 15.91.0822 5.4231.1184 10.8464.1587 16.27.0855 10.6205.2218 21.2397.3906 31.8593l2.8582.2595c3.5132.3203 7.0262.643 10.539.9673 1.5178.1396 3.0357.2783 4.5537.416 2.1872.1986 4.374.4006 6.5608.6033l3.9832.365C2201 481 2201 481 2206 482l-2 16h-100c-.7654-5.3579-1.0929-9.7052-1-15a7522.3567 7522.3567 0 0 1 10.375-2l2.9844-.5781 2.8515-.5469 2.6343-.5078C2124 479 2124 479 2126 479V342l-10 1c-4.673.113-9.3243.0458-14 0l-1-15c8.1386-2.8879 16.4332-5.013 24.8125-7.0625l2.2019-.5415c11.6126-2.8327 23.021-4.8145 34.9856-5.396 1.2451 4.985 1.3247 10.0045 1.5352 15.1133l.1302 2.938c.136 3.087.2666 6.174.3971 9.2612.0914 2.097.1832 4.194.2754 6.291.2248 5.132.4447 10.2642.6621 15.3965 9.3551-12.4225 9.3551-12.4225 18.5-25 4.3569-6.0664 8.7678-12.088 13.25-18.0625l1.5566-2.0762c4.4056-5.852 4.4056-5.852 8.2034-5.9748ZM2581 315v164l21 3 3 1a1626.7758 1626.7758 0 0 1-.4375 6.9375l-.246 3.9023C2604 497 2604 497 2603 498c-2.6725.1005-5.3192.1362-7.9922.1294l-2.5374.0053c-2.7818.0044-5.5636.0015-8.3454-.0019-1.9243.0007-3.8486.0017-5.773.003-4.0385.0014-8.077-.0008-12.1157-.0054-5.189-.0057-10.378-.0024-15.567.0035-3.9752.0036-7.9505.0025-11.9257 0-1.9139-.0008-3.8277 0-5.7416.0024-2.67.0025-5.3398-.0013-8.0098-.007l-2.4212.0062c-5.4567-.0212-5.4567-.0212-6.571-1.1355-.2353-2.3499-.4139-4.7056-.5625-7.0625l-.254-3.9102c-.0605-.999-.121-1.998-.1835-3.0273a7522.3538 7522.3538 0 0 1 10.375-2l2.9844-.5781 2.8515-.5469 2.6343-.5078C2536 479 2536 479 2538 479V341l-2 1c-1.5926.1518-3.1906.249-4.789.3164l-2.8516.127-2.9844.1191-3.0078.1309c-2.4556.1062-4.9113.2082-7.3672.3066-.339-1.728-.671-3.4575-1-5.1875l-.5625-2.918c-.407-2.6932-.4695-5.1784-.4375-7.8945 49.7488-12 49.7488-12 68-12Z"/>
  <path fill="#fff" d="M185 381h53v112h-12V392h-29v101h-12v-51h-21v51h-12v-51h-20v51h-12v-51H99v51H88v-67h11v10h21v-25h12v25h20l-.0352-8.496c-.0077-2.704-.0138-5.4078-.0197-8.1117a2965.519 2965.519 0 0 0-.0205-5.6543c-.0121-2.703-.0178-5.406-.0223-8.109l-.0156-2.5695c-.0002-2.0202.0512-4.0403.1133-6.0595 1-1 1-1 3.25-1.1328l2.75.0078 2.75-.0078C163 396 163 396 164 397c.0887 2.8843.1152 5.7446.0977 8.629l-.0043 2.6188c-.0056 2.7716-.0182 5.5431-.0309 8.3147-.005 1.8743-.0096 3.7487-.0137 5.623-.0102 4.605-.0297 9.2096-.0488 13.8145h21v-55Z"/>
  <path fill="#fff" d="M359 381h53v55h21l-.0352-8.496c-.0077-2.704-.0138-5.4078-.0197-8.1117a2965.519 2965.519 0 0 0-.0205-5.6543c-.0121-2.703-.0178-5.406-.0223-8.109l-.0156-2.5695c-.0002-2.0202.0512-4.0403.1133-6.0595l1-1h11v40h21v-25h11v25h21v-10h11v67h-11v-51h-21v51h-11v-51h-21v51h-12v-51h-21v51h-12V392h-29v101h-12V381Z"/>
  <path fill="#fff" d="M269.6406 215.0781C280.6643 224.4834 290.382 234.6417 298 247c.5569-.7 1.1137-1.4 1.6875-2.121C320.9752 218.3771 346.8437 194.7491 382 190l2.2266-.332c17.9978-2.2573 41.2286-1.9404 57.7734 6.332v30l-8.375-3.75c-25.2075-10.685-54.4128-12.7215-80.1523-2.4844-19.0655 7.9378-35.0506 18.8613-50.0118 32.9844C301 255 301 255 298 257l-1.8438-1.9844c-19.2526-20.0454-48.6868-39.6847-77.2397-41.1767-19.353-.2363-36.1525.487-54.358 7.7588-3.1464 1.24-6.35 2.3328-9.5585 3.4023v-29c4.6095-1.5365 9.1715-2.8844 13.875-4.0625l2.0273-.5254c34.2696-8.6169 71.7065 1.5332 98.7383 23.666Z"/>
  <path fill="#fff" d="m251 238 3.3945 1.0313C271.819 244.7176 285.3915 254.8433 298 268c4.694-3.9744 4.694-3.9744 9.2344-8.121 20.6678-19.486 45.3979-25.7751 72.9604-25.002C405.2696 235.9768 438.6373 244.6373 457 263c.1753 2.7968.2314 5.4933.1953 8.289l-.0086 2.4801c-.0112 2.6188-.0363 5.2372-.0617 7.8559-.01 1.7734-.0192 3.5469-.0273 5.3203-.0221 4.3517-.0567 8.7031-.0977 13.0547-4.7686-4.7598-4.7686-4.7598-6.8516-6.9219-23.0125-23.7222-54.4629-42.2437-88.144-43.43C336.4506 249.3526 317.3762 259.7799 299 277l-2.75-2.4375c-19.6526-16.6988-40.5533-25.9956-66.6333-24.7803-35.879 2.986-65.123 25.6285-89.6167 50.2178a782.0091 782.0091 0 0 1-.4395-15.4785 315.1457 315.1457 0 0 0-.164-5.2608c-.5597-14.5017-.5597-14.5017 2.1672-18.6254 2.079-1.5879 4.0365-2.6077 6.4363-3.6353a167.0313 167.0313 0 0 0 3.543-2.2734C179.3667 238.346 219.2468 227.4863 251 238ZM181 139c36.3614 1.212 66.0024 16.6115 91.039 42.754C282.3838 192.8986 290.5476 205.7994 298 219c3.3597-3.9824 6.0096-8.1796 8.6875-12.625C310.952 199.4351 315.608 193.1217 321 187l2.3164-2.6484c2.1994-2.4785 4.4302-4.9222 6.6836-7.3516l1.664-1.8281c16.7673-17.6758 40.137-29.7956 63.836-34.6719l2.3503-.4856C404.4585 138.8089 410.029 139 417 139v27l-6.9375.1875C375.207 167.8915 345.2473 181.258 320 205l-2.0117 1.7813c-5.3263 4.9265-9.2313 10.6564-13.2205 16.672l-1.3498 2.035-1.1946 1.8293c-1.2697 1.7461-2.6598 3.198-4.2234 4.6824l-1.8008-2.8594C290.5072 220.2631 284.3518 212.5421 277 205l-1.9102-2.1328C260.0823 186.5732 238.0088 176.6207 217 171l-3.539-.961c-10.659-2.5693-21.56-3.1642-32.461-4.039v-27Z"/>
  <path d="M1256 93a4374.245 4374.245 0 0 1 22.1687-.1554c3.4323-.0156 6.8644-.0367 10.2966-.071 3.9569-.0391 7.9136-.0534 11.8706-.0666l3.6881-.0469c9.6141-.0019 18.3056 1.0965 25.976 7.3399 5.1844 5.2277 7.287 9.9586 7.375 17.3125-.1806 8.443-2.351 12.9793-8.3125 18.875-5.352 4.5375-11.451 6.687-18.0625 8.8125 2.2655 1.7427 4.4977 3.2972 6.957 4.7656 3.4747 2.5514 5.4962 5.3822 7.7305 8.9844.8653 1.3337 1.7312 2.667 2.5977 4a1114.458 1114.458 0 0 1 4.1127 6.4648c1.3906 2.191 2.807 4.3633 4.2271 6.5352l1.2683 2.0576c3.3308 5.0502 6.3016 6.5338 12.1067 8.1924l-1 7c-4.0193.292-8.0358.4685-12.0625.625l-3.4355.254c-8.1869.2386-8.1869.2386-11.4705-2.5519-1.8897-2.6786-3.436-5.4628-5.0315-8.3271-1.7865-2.7395-3.647-5.4276-5.496-8.125a1906.3503 1906.3503 0 0 1-2.9395-4.3867c-1.5137-2.2645-3.0287-4.528-4.5496-6.7876-1.4873-2.2098-2.9686-4.4235-4.4485-6.6382l-1.3917-2.061C1295 150.2283 1295 150.2283 1295 148h-9v37l12 1-1 7h-41l-1-7 12-1v-84l-12-1 1-7Zm30 8v38c15.1645.8751 15.1645.8751 26.3125-6.25 3.4774-5.6669 5.515-11.012 4.6875-17.75-1.7654-5.5808-3.7848-9.9679-9-13-7.8395-2.8507-13.6576-1.927-22-1ZM1876.8125 100.1875c8.9733 7.5291 15.5585 19.16 17.1875 30.8125 1.0154 17.033-.1423 32.3835-11.125 46.125-9.6815 10.4953-25.6818 17.4074-39.9531 18.211-13.165.2838-23.256-2.298-33.9219-10.336l-2.625-1.75c-7.9725-7.553-13.7161-18.5275-14.552-29.5933-.4342-18.3243.3292-32.5767 13.1028-46.8012 18.9257-18.6406 50.2347-22.1233 71.8867-6.668Zm-56.246 8.707c-8.8484 11.8934-10.1005 27.5353-8.0313 41.793 2.5769 13.0677 7.231 24.3074 18.4687 32.125 6.5646 3.9054 14.2524 4.2568 21.5781 2.6055 7.8013-2.6244 12.7537-7.6444 16.7305-14.7696 6.5232-14.725 6.2575-32.532 1.0034-47.6118-3.8331-9.6162-9.4809-17.6532-19.1284-22.0366-11.4214-3.481-22.559-.8783-30.621 7.8945ZM850 93c4.1652-.2925 8.3277-.4686 12.5-.625l3.5547-.254c8.5736-.2407 8.5736-.2407 12.3391 2.8331 2.0816 2.584 3.8518 5.231 5.6062 8.0459a319.5042 319.5042 0 0 0 3.3867 4.5 1823.3926 1823.3926 0 0 1 3.3008 4.5l1.8081 2.4622c4.6112 6.2895 9.175 12.6127 13.7251 18.9465 4.243 5.8908 8.5854 11.7026 12.9985 17.467l1.4175 1.8665 1.241 1.6206C923 156 923 156 925 160l1-59-11-1v-7h33l1 7-12 1v92c-11 0-11 0-13.8398-2.246l-2.0977-3.1915-1.2078-1.757a195.4885 195.4885 0 0 1-2.5393-3.8035c-1.8041-2.7458-3.7165-5.409-5.626-8.082-1.5305-2.1477-3.0449-4.306-4.5566-6.4669-3.1508-4.4921-6.3532-8.9457-9.5703-13.3906l-1.6184-2.2363c-1.089-1.5041-2.1783-3.008-3.2678-4.5117-2.8957-3.9981-5.7858-8.0002-8.6763-12.002l-1.5994-2.2126-1.5256-2.1116-1.3203-1.827c-2.1926-3.0482-4.3722-6.1058-6.5547-9.1613l-1 65 11 1a143.9844 143.9844 0 0 1 0 6c-1 1-1 1-4.1428 1.1135a588.8923 588.8923 0 0 1-4.1736-.0158l-2.2153-.0043c-2.3437-.0056-4.6872-.0182-7.0308-.0309a8216.199 8216.199 0 0 0-4.7559-.0137c-3.8939-.011-7.7877-.0283-11.6816-.0488v-7c4.2655-1.034 7.3732-1 12-1v-83l-12-2 1-7Z"/>
  <path fill="#fff" d="M299 288c.62-.5685 1.24-1.137 1.879-1.7227 14.5797-12.7122 30.5217-17.4624 49.6835-17.6523l3.1538-.0427C381.1046 268.7527 405.821 284.7449 425 303l3.2656 2.2773c3.3036 3.322 3.1959 6.537 3.3203 11.0899-.0178 2.8386-.1098 5.6711-.2109 8.5078-.0301 1.466-.0575 2.9322-.082 4.3984-.0659 3.5768-.1692 7.1513-.293 10.7266-3.2066-3.1397-5.8813-6.3957-8.5625-10-18.1958-24.0114-43.8416-45.8795-74.5625-50.6797-16.4347-1.831-30.4007 2.3586-43.4023 12.6875-1.87 1.6234-3.6934 3.2705-5.4727 4.9922l-1.3633-1.0664c-14.6086-11.2127-28.8447-19.0865-47.7275-16.6655C218.5404 284.2653 193.025 305.517 174 330c-1.9717 2.726-3.8958 5.4676-5.7578 8.2695L167 340h-1c-2.0703-28.868-2.0703-28.868 2.2148-35.379 2.3555-2.6372 5.0719-4.6332 8.0577-6.5087 1.75-1.1268 3.3016-2.3568 4.8916-3.6982C216.01 265.2789 262.0382 258.8849 299 288Z"/>
  <path d="M1152 93h78c.839 3.3563 1.1836 6.0079 1.3164 9.4219l.127 3.1054.1191 3.2227.1309 3.2695c.1059 2.66.208 5.3202.3066 7.9805h-7a3835.4511 3835.4511 0 0 1-3.4375-6.8125l-.9863-1.9473c-1.3685-2.7229-2.611-5.3447-3.5762-8.2402-7.3164-1.0883-14.6134-1.3243-22-1.5625L1182 101v36l4-1c2.4158-.0683 4.8333-.0849 7.25-.0625l3.8281.0273L1200 136l.371-2.168c.6404-2.8831 1.5645-5.418 2.6915-8.1445l1.0977-2.6758L1205 121h7v39h-7a1062.044 1062.044 0 0 1-2.5-5.8125l-1.4063-3.2695C1200 148 1200 148 1200 145l-3.4297.0352c-1.4818.0093-2.9635.0184-4.4453.0273l-2.2617.0254c-5.6367.0254-5.6367.0254-7.8633-1.0879v41l15-1c3.9873-.062 7.9526-.0987 11.9375-.0625l2.9746.0137c2.3627.0115 4.7253.0278 7.0879.0488l.7734-2.5703c1.3115-3.6672 2.973-6.8954 4.8516-10.3047l1.914-3.4922L1228 165h7c-.5098 6.4232-1.395 12.719-2.5 19.0625l-.3958 2.3103c-.9812 5.5042-.9812 5.5042-2.1042 6.6272-2.434.095-4.8394.1256-7.2737.1135l-2.3058.0005c-2.527-.0007-5.0538-.0085-7.5807-.0163-1.7473-.002-3.4947-.0033-5.242-.0043a8820.6308 8820.6308 0 0 1-13.8243-.0247c-4.6986-.0102-9.3972-.0148-14.0958-.0199-9.2259-.0107-18.4518-.0278-27.6777-.0488l-1-7 12-1v-84l-11-1c-1-2-1-2 0-7ZM727 93h42v7l-11 1c.0615 8.0244.1389 16.0485.2357 24.0726.0445 3.727.0838 7.4539.1107 11.181.0263 3.6054.0668 7.2102.1168 10.8153.0165 1.3668.0281 2.7338.0344 4.1007.023 14.4064.023 14.4064 5.7524 27.3304 6.1128 5.5571 11.5123 6.0717 19.5898 5.8398 5.3536-.5757 9.0553-1.9974 12.6836-6.0351 6.2868-8.9759 5.796-20.1105 5.8907-30.625.0187-1.3534.0383-2.7067.0586-4.06.051-3.5278.0908-7.0557.1282-10.5836.0403-3.6137.0913-7.2272.1413-10.8408.0962-7.065.1808-14.13.2578-21.1953l-2.5898-.1484-3.3477-.2266-3.3398-.211L791 100c-1-2-1-2 0-7h36v7l-11 1 .0317 5.3333c.0325 5.8552.0553 11.7105.072 17.5659.0103 3.5454.0244 7.0908.0472 10.6362.0261 4.0885.0356 8.1768.0444 12.2654l.0313 3.805c.0014 11.1433-.3269 22.8062-8.1016 31.488C802.7261 187.2612 796.959 190.379 790 193c-.932.366-1.864.7322-2.8242 1.1094-11.4349 3.2068-24.1793 1.235-34.4766-4.3594-7.0791-4.6928-11.3107-11.9502-13.2838-20.1265-.932-5.8856-.6554-11.8976-.6107-17.8423.0037-1.4683.0066-2.9366.0086-4.4049.0076-3.8403.0272-7.6804.0494-11.5207.0205-3.9284.0296-7.8568.0396-11.7853.0214-7.6902.0566-15.3802.0977-23.0703l-12-1v-7ZM1430 98v22h-10l-.8477-2.9219c-2.1613-8.1335-2.1613-8.1335-7.7773-13.8906-7.1495-2.5156-13.7375-3.7648-20.875-.4375-3.0602 1.5803-4.2698 3.0266-5.5 6.25-.4602 2.1152-.4602 2.1152-.5 4.3125l-.1563 2.1758c1.253 4.7954 4.59 8.2146 8.7374 10.8181 2.317 1.1745 4.657 2.2311 7.0439 3.2561 1.6969.769 3.3935 1.5385 5.0898 2.3086l2.484 1.105c19.9098 8.8587 19.9098 8.8587 24.8012 18.1489 2.8014 7.3286 2.7889 15.6395-.25 22.875-4.922 10.0001-13.9802 14.9273-24 18.9375-11.5944 3.831-23.1891 3.3003-34.25-1.9375l-2.0552-.8625c-3.4191-1.6958-5.4978-2.9388-6.8645-6.6036-.54-2.956-.8541-5.8503-1.0803-8.8464l-.3242-3.1113c-.2581-2.5223-.4714-5.049-.6758-7.5762h12l1.75 4.125c3.9924 8.8612 7.7142 12.7222 16.625 16.1875 5.9456 1.1276 10.603.736 16-2.0625 3.4395-2.9482 5.309-4.9565 5.9414-9.5469.2764-5.8835-.4236-10.1968-4.3164-14.7031-6.8257-5.2815-15.185-8.3113-23.0684-11.6309-8.0593-3.5473-14.7671-7.919-19.9316-15.1816-2.2225-7.0841-2.9439-14.071-.1133-21.0664C1372.7658 100.825 1380.6896 96.905 1390 93l2.789-1.1719c13.066-4.5 25.5927.0987 37.211 6.1719Z"/>
  <path fill="#fff" d="M222 102c25.969 5.7709 45.0903 29.1034 59.3164 50.414C288.5756 163.864 294.8386 176.0778 299 189l.4883-2.1055c7.9817-29.8463 32.5516-63.3411 59.3457-78.9638C369.5899 102 369.5899 102 375 102v26l-5.6875 2.0625C358.0097 134.4362 348.149 140.0113 339 148l-2.5586 2.1914C320.043 164.5432 307.3288 182.8721 299 203c-2.7244-2.7244-4.0396-6.0057-5.6875-9.4375C280.2085 166.896 258.9088 142.6039 231 131l-9-3v-26Z"/>
  <path d="M1914 93h79l1 27h-7a2708.0797 2708.0797 0 0 1-2.875-5.6875l-1.6172-3.1992A102.1068 102.1068 0 0 1 1979 103c-7.3164-1.0883-14.6134-1.3243-22-1.5625L1944 101v38l3-1c2.5727-.0703 5.1164-.0937 7.6875-.0625l2.127.0137c1.7285.0117 3.457.0297 5.1855.0488l.586-2.0117c2.5862-8.7704 2.5862-8.7704 4.414-12.9883h7v39h-7a2020.6629 2020.6629 0 0 1-2.5-6.375l-1.4063-3.586C1962 149 1962 149 1962 147h-18v38h9c2.699.2246 5.3172.6098 8 1v7h-47v-7c4.2655-1.034 7.3732-1 12-1v-84l-12-1v-7ZM1034 93h41l1 7-11 1 1.2983 3.2783c4.361 11.0746 8.4214 22.2294 12.3267 33.4717a14984.829 14984.829 0 0 0 2.4864 7.1226c.5074 1.4536 1.014 2.9075 1.5196 4.3617 2.415 6.9366 4.8934 13.8505 7.369 20.7657l.777-2.224a83334.0224 83334.0224 0 0 1 7.2817-20.8306c1.2481-3.5689 2.4958-7.1379 3.7428-10.7071 1.2052-3.4497 2.4113-6.8992 3.618-10.3484.4584-1.3106.9165-2.6214 1.3742-3.9323 2.3327-6.6802 4.6838-13.3465 7.2063-19.9576l-10-2c-1-3-1-3 0-7h32v7l-10 1-.2944 1.94c-.9592 4.1598-2.4721 8.0379-3.9947 12.021l-1.017 2.688c-1.1024 2.9102-2.2105 5.8181-3.3189 8.726-.7639 2.012-1.5276 4.0242-2.291 6.0364-5.166 13.603-10.366 27.193-15.584 40.7761l-.9832 2.5605a7883.2918 7883.2918 0 0 1-2.7356 7.1075l-.8151 2.121c-2.657 6.8812-2.657 6.8812-4.8919 7.9102l-2.3867.8008-2.3633.8242c-2.7256.5726-3.7935.6708-6.3242-.5117-1.2106-2.2814-2.1028-4.3529-2.9688-6.7656l-.8267-2.1849a595.3608 595.3608 0 0 1-1.7737-4.7699c-.9417-2.5592-1.9064-5.1088-2.8768-7.6573-3.5577-9.3837-6.9886-18.8083-10.334-28.2697-1.726-4.8635-3.4828-9.7157-5.2425-14.567a591.6082 591.6082 0 0 1-2.5307-7.2044c-1.1711-3.402-2.3912-6.7827-3.6226-10.1632l-1.025-3.1071c-1.047-2.7868-1.9437-4.9805-3.7992-7.3109-3.3184-1.4221-6.4074-1.8732-10-2v-7ZM1624 93h41v6c-6.625 2-6.625 2-10 2l1.4495 2.4717c1.8098 3.0863 3.6195 6.1728 5.4292 9.2593l2.33 3.9736c4.941 8.4256 9.8741 16.8558 14.7913 25.2954l.9429-1.8257c6.8148-13.177 13.7663-26.2542 21.0571-39.1743l-10-1c-1-4-1-4 0-7 4.539-.0247 9.078-.0428 13.617-.055 1.5452-.005 3.0904-.0118 4.6357-.0204 2.2166-.0121 4.433-.0178 6.6496-.0223l2.1055-.0156c1.6645-.0002 3.3289.0514 4.9922.1133 1 1 1 1 1.125 3.5C1724 99 1724 99 1723 100c-1.6818.2329-3.3712.4126-5.0625.5625l-2.7852.254L1713 101l-.6055 2.3164c-1.981 5.2329-4.8479 9.8244-7.707 14.6211l-1.866 3.2224c-3.0533 5.2625-6.1705 10.4171-9.6028 15.4417C1682.711 152.5342 1682.1425 166.4192 1683 185l1.826-.0176 2.42-.0137 2.3885-.0175c3.1944.066 6.2182.513 9.3655 1.0488v7h-50l-1-7c5.7267-.833 11.217-1.0562 17-1 .7458-18.9978.1197-33.2822-11.1411-49.2764-3.576-5.2394-6.6994-10.7624-9.9214-16.2236a2735.6029 2735.6029 0 0 0-3.7852-6.2813c-1.051-1.7393-2.1019-3.4789-3.1523-5.2187l-1.697-2.7012C1634 103 1634 103 1634 101l-10-1c-1.125-4.75-1.125-4.75 0-7ZM1519 93h84v27h-7c-.8207-1.8714-1.6312-3.7473-2.4375-5.625-.4525-1.0441-.905-2.0883-1.371-3.164C1591 108 1591 108 1590 102l-19-1v84h8c1.3377.1265 2.6746.2791 4 .5l3 .5v7h-50v-7c5.5415-.9432 10.2221-1 16-1v-84l-19 1-1.3125 4.5c-1.3725 4.588-2.9522 9.0378-4.6875 13.5h-8V93Z"/>
  <path fill="#fff" d="M319 316c13.3323-.7702 24.3938.715 35.2188 9.375L356 327l2.6992 1.9492c3.536 4.6886 2.8396 9.1646 2.6133 14.8633l-.0684 3.2559A471.9345 471.9345 0 0 1 361 355c-2.548-2.4531-4.2041-4.88-6-7.9375-6.411-10.198-15.2195-21.1357-27-25.0625l-.5508 1.6875C325.7514 328.842 323.9358 333.9301 322 339h8c-.731 5.0549-2.6838 9.599-4.5625 14.3125l-.998 2.5332A1854.2043 1854.2043 0 0 1 322 362h8c-.5377 3.8687-1.8777 7.0336-3.532 10.553-4.6283 10.0576-5.4745 18.7845-5.3703 29.7322a1425.41 1425.41 0 0 1-.0373 5.0389c-.0318 4.3583-.023 8.7156-.0046 13.074.0113 4.4722-.0173 8.9442-.0421 13.4164-.0428 8.7288-.0388 17.4566-.0137 26.1855h25v6h-24l2.7734 4.6367c1.2007 2.0168 2.4013 4.0338 3.6016 6.0508l1.8281 3.0527 1.7578 2.959 1.6187 2.7136c1.3608 2.4786 2.432 4.941 3.4204 7.5872-4.2048.755-7.8186.9777-12 0-3.6655-3.44-5.83-7.5336-8.1875-11.9375l-1.9785-3.4434c-1.1986-2.089-2.3786-4.189-3.534-6.3024-1.1023-2.2092-1.1023-2.2092-2.3-3.3167-.143-2.4389-.221-4.8505-.2563-7.2917l-.0443-2.317c-.1272-7.1353-.1951-14.2718-.2478-21.408-.0355-4.7823-.088-9.5629-.1855-14.3444-.8096-40.6314-.8096-40.6314 9.7339-58.6389l-8-1c2.397-7.443 5.1526-14.7184 8-22l-8-1c2.5813-8.174 5.7701-16.0664 9-24Z"/>
  <path fill="#fff" d="M278 316c1.5057 3.6227 3.0036 7.2485 4.5 10.875l1.3008 3.129c.406.986.812 1.9722 1.2305 2.9882l1.1425 2.7612C287 338 287 338 287 340l-8 1 .7344 1.8042c1.0921 2.6888 2.179 5.3798 3.2656 8.0708l1.1563 2.8398 1.0937 2.7149 1.0156 2.5073C287 361 287 361 287 363l-8 1a5195.2314 5195.2314 0 0 0 3.9375 9.9375l1.1309 2.8652 1.084 2.7246.9997 2.5232c.6914 1.9151.6914 1.9151 1.8479 2.9495.1536 2.4955.2422 4.9646.288 7.4629l.054 2.3709c.1555 7.2768.2423 14.555.31 21.833.046 4.8827.1128 9.7628.2328 14.6442.1157 4.7283.1753 9.4543.1978 14.184.0176 1.7892.054 3.5784.111 5.3669.4073 13.4326-2.5851 21.563-10.7798 32.206-1.9536 2.6697-3.5874 5.503-5.218 8.3787C272 493 272 493 268.8869 493.7813l-3.1993-.2813-3.2383-.2188L260 493c1.3706-3.6694 3.0335-6.9386 5.039-10.3008l1.7579-2.959 1.8281-3.0527 1.8516-3.1113A4277.0281 4277.0281 0 0 1 275 466h-24v-6h25c.0505-9.5643.066-19.127.0233-28.6913-.0184-4.4434-.0228-8.8858.0075-13.3292.2688-27.9318.2688-27.9318-9.0308-53.9795v-2l8-1-.7344-1.8042c-1.0921-2.6888-2.179-5.3798-3.2656-8.0708l-1.1563-2.8398-1.0937-2.7149-1.0156-2.5073C267 341 267 341 267 339l8-1-6-15c-10.3723 2.0745-18.4002 11.335-24.254 19.8169-2.0586 3.1218-4.0398 6.2854-5.996 9.4722L237 355h-1c-.2054-3.4991-.3283-6.9967-.4375-10.5l-.1777-2.9766c-.1273-5.4522.237-8.7966 3.8379-13.0351C250.6617 317.2184 262.7248 315.494 278 316Z"/>
  <path d="M971 93h41l1 7-12 1 1 83 11 2-1 7h-41l-1-7 11-2 1-83-12-1 1-7ZM1456 93a8099.6515 8099.6515 0 0 1 17.4622-.055c1.9817-.005 3.9635-.0118 5.9453-.0204 2.842-.0121 5.684-.0178 8.526-.0223l2.7021-.0156c2.1218-.0002 4.2435.0512 6.3644.1133 1 1 1 1 1 7l-12 1 1 83 11 2-1 7h-41l-1-7c4.2655-1.034 7.3732-1 12-1v-84l-12-1 1-7ZM2581 248c6.0478 12.0956 1.8772 29.7973-2 42-3.6452.34-7.2913.6707-10.9375 1l-3.0957.289c-9.4796.848-17.722 1.0589-26.9668-1.289a2761.9254 2761.9254 0 0 1-1-8.5625l-.289-2.4238c-.9265-8.1063-.7165-15.0443 1.289-22.9512l.5781-2.3613c.4668-1.9022.9434-3.802 1.4219-5.7012 3.6243-.3408 7.2496-.6712 10.875-1l3.0703-.289c18.1413-1.6281 18.1413-1.6281 27.0547 1.289Z"/>
  <path fill="#fff" d="M264 88a749.1797 749.1797 0 0 1 3.7852 1.8438l2.1291 1.037C282.9436 97.8722 290.2995 112.5774 295 126c.9507 3.2682 1.7844 6.5115 2.4922 9.8398.3002 2.1281.3002 2.1281 1.5078 3.1602l.5938-2.9375C302.886 120.8872 308.5792 107.8417 320 97l2.1719-2.0898C325.6815 91.6842 328.5306 89.7166 333 88c2.0655 19.7088 2.0655 19.7088-1.147 24.8276-2.517 2.3813-5.3896 3.8745-8.4585 5.438-10.142 5.182-16.3793 17.3021-20.1147 27.7486C301.111 152.8605 299.5847 159.838 299 167h-1l-.2969-2.168c-3.0136-20.0821-9.9817-36.5064-26.3086-49.1406-2.3515-1.7578-2.3515-1.7578-5.0136-2.9643C264 111 264 111 263.4324 108.548l.0793-2.8723.0488-3.1153.127-3.248.0684-3.2832A489.509 489.509 0 0 1 264 88Z"/>
  <path fill="#fff" d="M374.9336 304.6992C382.007 310.0066 389.0779 316.6168 394 324c.227 2.9109.227 2.9109.1953 6.418l-.0195 3.7988-.0508 3.9707c-.01 1.3353-.0192 2.6706-.0273 4.0059-.0236 3.269-.0566 6.5377-.0977 9.8066-3.2997-1.6498-4.1749-5.2773-5.6875-8.5-3.1416-6.486-6.563-12.0443-11.3125-17.5l-1.3477-1.7773c-10.3-13.2429-27.359-21.4944-43.7148-23.8555L328 299.875l-2.0586-.2617c-1.6466-.2087-3.294-.4117-4.9414-.6133 12.4089-12.4089 42.0479-1.594 53.9336 5.6992Z"/>
  <path fill="#fff" d="M276 298v1l-2.6406.332c-22.5997 3.0084-41.015 10.3637-55.6094 28.793-5.34 7.0253-9.0793 14.8875-12.75 22.875h-1c-.2046-4.4993-.328-8.9974-.4375-13.5l-.1777-3.8438c-.1934-10.6072-.1934-10.6072 3.9199-15.3125 1.2087-1.1395 2.4378-2.2582 3.6953-3.3437l1.9414-2.25C229.0515 295.3588 253.9721 290.9911 276 298Z"/>
  <path fill="#fff" d="M355 362h61c-1 5-1 5-4 12h-53c-4-10-4-10-4-12ZM181 362h61c-1 5-1 5-4 12h-53c-4-10-4-10-4-12Z"/>
</svg>