<svg xmlns="http://www.w3.org/2000/svg" fill="currentColor" viewBox="0 0 960 198.7467">
  <g>
    <path d="M668.5173 104.5513c0-14.5853 22.1667-37.1202 33.256-37.1202 3.0427 0 5.02 1.3057 5.02 4.4016 0 8.0785-17.0787 22.488-38.276 32.7186m-54.672-37.0776c3.0414 0 5.02 1.3052 5.02 4.4027 0 8.0785-17.08 22.4853-38.2773 32.7187 0-14.5864 22.1667-37.1214 33.2573-37.1214m-225.8666 38.7386c0-17.3968 26.4426-36.6183 46.904-36.6183 4.0493 0 8.124.685 11.736 2.1548-24.0227 38.3025-58.64 53.5333-58.64 34.4635m-22.776 80.1875c-2.34 0-3.844-1.1703-3.844-3.6558 0-5.4187 10.64-19.5119 38.6253-29.5837-11.8947 19.4333-25.7373 33.2395-34.7813 33.2395m-157.148-80.1875c0-16.7959 26.116-36.6823 47.04-36.6823 4.2146 0 8.1853.6916 11.6173 2.2188-25.3027 39.8077-58.6573 52.8905-58.6573 34.4635M370.98 29.4107c2.308 0 3.3187 1.1546 3.3187 3.3186 0 9.956-23.8067 40.8324-47.7574 60.31 6.06-21.2093 33.184-63.6286 44.4387-63.6286m540.7626 87.7724c18.0907-22.713-5.608-55.915 20.0067-64.915-.5933-6.3814-6.576-10.1948-14.212-10.1948-6.8827 0-14.2467 3.7614-18.9573 9.8374-26.984 34.8193-54.9987 61.635-71.024 61.635-5.3387 0-7.2134-2.4532-7.2134-6.636 0-12.9865 16.304-32.0318 28.8574-45.3057 1.5866-1.7307 2.308-3.464 2.308-5.0507 0-3.896-4.472-6.492-9.956-6.492-13.784 0-42.4014 21.8151-63.544 41.7354 7.5733-14.3042 15.98-25.6896 15.98-31.8567 0-6.4947-6.7814-8.3693-14.5734-8.224-30.1813 40.1192-68.908 69.7593-93.7666 69.7593-6.436 0-10.7347-2.1718-13.432-5.3813 31.6546-12.9375 58.088-34.5443 58.088-50.4905 0-9.8795-8.2867-14.2755-19.8974-14.2755-29.8093 0-67.5226 31.7165-69.388 63.4723-28.7266 10.3308-50.1253 8.4906-56.7306 1.3376 31.652-12.9376 58.088-34.5454 58.088-50.4907 0-9.8792-8.288-14.2739-19.8987-14.2739-30.0666 0-68.176 32.2603-69.4333 64.29-14.3827 4.4214-30.7347 6.3651-30.7347-5.488 0-19.5537 29.2894-35.6109 29.2894-48.6233 0-3.608-1.588-6.6387-4.3294-8.224-9.3413 4.812-23.228 8.8-33.3293 8.8 2.5973-8.0787-.144-14.428-8.0787-14.428-11.688 0-20.6 13.1293-20.6 23.807 0 4.684 1.728 7.9402 4.5574 10.0933-11.592 15.5964-26.28 29.8666-46.088 41.2042 5.9146-12.2666 10.4946-25.4734 16.8573-44.1146 15.3707-9.0667 23.172-27.5312-7.8-27.5312-25.3907 0-53.436 15.2577-70.9867 35.7792-22.916 26.7932-50.82 41.7561-55.7693 21.4238 37.8373-28.464 73.02-68.699 72.6333-88.7404-.1386-7.248-4.4533-12.172-14.604-12.172-24.0213 0-80.0426 54.6094-84.8 103.2167-40.1053 21.476-35.5613-12.36-23.3-30.1625 17.82-9.1486 30.1534-29.3448-3.0786-29.3448-48.2187 0-87.9067 44.8364-87.236 73.5177.1986 8.4921 4.464 15.4984 13.484 15.502 10.3346.0084 26.924-7.1552 44.396-25.2072-3.364 17.2895.6413 25.2072 14.8173 25.2072 11.5253 0 26.292-5.7968 41.8987-14.7687 2.592 8.0719 9.3253 14.7687 22.5546 14.7687 13.7307 0 30.6547-10.8115 43.904-24.7672-.6813 3.0959-1.0413 6.1985-1.0413 9.2787 0 10.0313 5.3853 15.4849 13.3773 15.4885 9.004.0068 22.484-7.1405 37.3254-21.1484-2.3347 6.3703-5.004 12.8505-8.144 19.1672-31.932 11.276-64.868 23.4812-64.868 45.5855 0 9.3775 7.7773 14.9624 17.588 14.9624 23.936 0 53.352-28.5916 71.716-56.4744 22.756-10.2006 49.2466-29.5183 69.68-57.1448 5.3146.129 11.208-.7866 16.6586-2.2199-17.472 18.5652-25.5413 30.588-25.5413 42.2745 0 9.6678 7.3587 14.9979 20.344 14.9979 11.332 0 25.576-4.0088 42.4147-11.4192 4.9226 7.5473 15.1866 11.4192 28.3826 11.4192 19.6854 0 41.464-6.7197 58.352-13.6901 3.7414 7.9781 12.7467 13.6901 27.1867 13.6901 29.3546 0 55.9133-18.627 78.3253-38.5875-10.1187 15.3974-25.1747 38.5875-4.008 38.5875 3.3187 0 7.9907-.5359 11.8227-1.8172 15.0053-27.4124 34.4933-45.1593 53.9706-56.8457-16.016 19.9104-22.652 35.061-22.652 44.8718 0 9.0886 5.6267 13.7911 14.86 13.7911 28.124 0 61.164-28.9072 89.6067-62.003 1.4587 12.641 9.156 26.2035-4.3227 37.976-20.3626-.4787-31.7506 5.3917-31.7293 14.9395.0147 5.8812 4.9413 9.0875 11.912 9.0875 7.0853 0 14.0373-2.0583 20.4893-5.2276 11.4054 3.3037 23.1814 6.848 36.9427 6.848 20.072 0 34.2053-10.0808 34.6493-26.773-11.5093 6.0255-30.0586 3.7589-48.256 2.1573"/>
    <path d="M105.7588 96.2259c.4333-26.9814 19.4772-55.3366 29.1452-55.3366 2.856 0 3.4627 1.8547 3.4627 3.8267 0 9.2333-13.7068 33.9072-32.6079 51.5099M201.5907-.0027c-9-.0493-17.6854 5.3987-23.3094 13.576 26.572 17.376-5.9866 103.8963-54.0053 103.8963-5.7547 0-10.6375-1.676-13.9041-5.0984 25.9948-23.4163 44.7734-55.2592 44.7734-74.0379 0-9.6013-4.6906-15.692-15.684-15.692-31.893 0-65.5186 52.3283-59.281 90.0794-20.1095 7.1437-30.1032-1.7923-30.1032-19.7402 0-37.4738 39.1546-76.3392 36.8817-88.0325C46.388 17.4907 14.636-11.6507 0 35.776c19.7213-10.7307 37.9255 6.4227 60.423-6.1187C41.1015 51.9453 21.6 83.502 21.8624 110.1524c.1735 17.4427 9.5948 30.026 30.0042 30.026 11.5896 0 23.6161-4.0583 35.1921-10.6781 4.96 6.1994 12.9532 10.6781 25.1693 10.6781 49.8066 0 104.2412-69.9823 104.2412-119.9197 0-13.248-5.2573-20.208-14.8786-20.2614"/>
  </g>
</svg>